<svg version="1.1" viewBox="0.0 0.0 960.0 540.0" fill="none" stroke="none" stroke-linecap="square" stroke-miterlimit="10" xmlns:xlink="http://www.w3.org/1999/xlink" xmlns="http://www.w3.org/2000/svg"><clipPath id="g1279ae57506_0_1026.0"><path d="m0 0l960.0 0l0 540.0l-960.0 0l0 -540.0z" clip-rule="nonzero"/></clipPath><g clip-path="url(#g1279ae57506_0_1026.0)"><path fill="#2a3990" d="m0 0l960.0 0l0 540.0l-960.0 0z" fill-rule="evenodd"/><path fill="#212d74" d="m853.41766 0.0016543308l106.58264 0l0 106.58267l-106.58264 0z" fill-rule="evenodd"/><path fill="#3949ab" d="m853.40295 106.58319l0 -106.58268l-106.58264 106.58268z" fill-rule="evenodd"/><path fill="#7890cd" d="m746.83344 0.011226509l0 106.58268l106.58264 -106.58268z" fill-rule="evenodd"/><path fill="#212d74" d="m746.83234 0.010170604l0 106.58268l-106.58264 -106.58268z" fill-rule="evenodd"/><path fill="#7890cd" d="m959.99884 106.60107l0 106.58268l-106.58264 -106.58268z" fill-rule="evenodd"/><path fill="#000000" fill-opacity="0.0" d="m0 123.94226l960.0 0l0 102.708664l-960.0 0z" fill-rule="evenodd"/><path fill="#ffffff" d="m270.18805 206.56842q-4.984375 0 -8.546875 -2.109375q-3.546875 -2.125 -5.453125 -6.0q-1.8906403 -3.890625 -1.8906403 -9.265625q0 -4.03125 1.078125 -7.21875q1.0937653 -3.203125 3.1250153 -5.4375q2.046875 -2.234375 5.015625 -3.453125q2.984375 -1.21875 6.671875 -1.21875q2.984375 0 5.671875 0.84375q2.6875 0.828125 4.65625 2.46875q0.625 0.46875 0.828125 1.078125q0.21875 0.59375 0.046875 1.15625q-0.15625 0.546875 -0.5625 0.90625q-0.40625 0.359375 -0.984375 0.359375q-0.578125 0 -1.296875 -0.484375q-1.734375 -1.390625 -3.796875 -2.0625q-2.0625 -0.671875 -4.46875 -0.671875q-3.78125 0 -6.421875 1.609375q-2.640625 1.609375 -3.984375 4.6875q-1.34375 3.0625 -1.34375 7.4375q0 4.359375 1.34375 7.453125q1.34375 3.09375 3.984375 4.703125q2.640625 1.609375 6.421875 1.609375q2.359375 0 4.46875 -0.6875q2.109375 -0.703125 3.890625 -2.09375q0.71875 -0.484375 1.296875 -0.453125q0.578125 0.015625 0.953125 0.359375q0.390625 0.328125 0.546875 0.859375q0.171875 0.53125 0 1.109375q-0.15625 0.578125 -0.734375 1.0q-2.015625 1.734375 -4.734375 2.625q-2.703125 0.890625 -5.78125 0.890625zm25.155304 0q-3.40625 0 -5.90625 -1.484375q-2.5 -1.5 -3.875 -4.203125q-1.359375 -2.71875 -1.359375 -6.40625q0 -2.796875 0.765625 -5.015625q0.78125 -2.234375 2.265625 -3.8125q1.484375 -1.59375 3.515625 -2.4375q2.046875 -0.84375 4.59375 -0.84375q3.40625 0 5.90625 1.5q2.5 1.484375 3.859375 4.203125q1.375 2.703125 1.375 6.40625q0 2.78125 -0.78125 4.984375q-0.765625 2.203125 -2.25 3.8125q-1.484375 1.609375 -3.53125 2.453125q-2.03125 0.84375 -4.578125 0.84375zm0 -3.125q2.15625 0 3.78125 -1.046875q1.640625 -1.0625 2.53125 -3.078125q0.890625 -2.015625 0.890625 -4.84375q0 -4.375 -1.953125 -6.671875q-1.9375 -2.3125 -5.25 -2.3125q-2.203125 0 -3.8125 1.03125q-1.609375 1.03125 -2.5 3.03125q-0.890625 1.984375 -0.890625 4.921875q0 4.3125 1.96875 6.640625q1.96875 2.328125 5.234375 2.328125zm18.9068 3.03125q-0.953125 0 -1.4375 -0.53125q-0.484375 -0.53125 -0.484375 -1.5l0 -20.015625q0 -0.953125 0.484375 -1.453125q0.484375 -0.5 1.390625 -0.5q0.921875 0 1.421875 0.5q0.5 0.5 0.5 1.453125l0 4.140625l-0.53125 -0.578125q1.015625 -2.78125 3.296875 -4.203125q2.28125 -1.421875 5.25 -1.421875q2.78125 0 4.625 1.015625q1.859375 1.0 2.765625 3.046875q0.921875 2.046875 0.921875 5.15625l0 12.859375q0 0.96875 -0.515625 1.5q-0.5 0.53125 -1.40625 0.53125q-0.96875 0 -1.46875 -0.53125q-0.5 -0.53125 -0.5 -1.5l0 -12.609375q0 -3.265625 -1.28125 -4.78125q-1.265625 -1.515625 -4.046875 -1.515625q-3.21875 0 -5.125 2.0q-1.890625 1.984375 -1.890625 5.296875l0 11.609375q0 2.03125 -1.96875 2.03125zm33.217194 0.09375q-2.15625 0 -4.34375 -0.53125q-2.1875 -0.53125 -4.046875 -1.828125q-0.484375 -0.328125 -0.6875 -0.78125q-0.1875 -0.46875 -0.109375 -0.921875q0.078125 -0.453125 0.390625 -0.78125q0.3125 -0.34375 0.765625 -0.40625q0.453125 -0.078125 1.03125 0.203125q1.875 1.15625 3.625 1.609375q1.75 0.453125 3.46875 0.453125q2.75 0 4.140625 -1.0q1.390625 -1.015625 1.390625 -2.734375q0 -1.34375 -0.921875 -2.140625q-0.90625 -0.796875 -2.875 -1.21875l-4.375 -0.96875q-3.015625 -0.625 -4.484375 -2.15625q-1.453125 -1.53125 -1.453125 -3.984375q0 -2.15625 1.125 -3.71875q1.125 -1.5625 3.1875 -2.421875q2.0625 -0.875 4.796875 -0.875q2.109375 0 4.0 0.5625q1.90625 0.546875 3.4375 1.75q0.484375 0.328125 0.65625 0.796875q0.171875 0.453125 0.046875 0.90625q-0.125 0.453125 -0.46875 0.765625q-0.328125 0.3125 -0.8125 0.359375q-0.46875 0.046875 -1.0 -0.28125q-1.4375 -0.96875 -2.9375 -1.421875q-1.484375 -0.453125 -2.921875 -0.453125q-2.6875 0 -4.078125 1.0625q-1.390625 1.046875 -1.390625 2.78125q0 1.34375 0.859375 2.203125q0.875 0.859375 2.6875 1.25l4.375 0.90625q3.125 0.671875 4.671875 2.140625q1.5625 1.46875 1.5625 3.953125q0 3.171875 -2.546875 5.046875q-2.53125 1.875 -6.765625 1.875zm23.478638 0q-2.828125 0 -4.6875 -1.03125q-1.84375 -1.03125 -2.78125 -3.09375q-0.9375 -2.078125 -0.9375 -5.140625l0 -12.875q0 -1.0 0.5 -1.46875q0.515625 -0.484375 1.421875 -0.484375q0.96875 0 1.46875 0.484375q0.5 0.46875 0.5 1.46875l0 12.828125q0 3.0625 1.265625 4.578125q1.28125 1.515625 4.015625 1.515625q2.96875 0 4.84375 -2.015625q1.875 -2.015625 1.875 -5.28125l0 -11.625q0 -1.0 0.5 -1.46875q0.515625 -0.484375 1.46875 -0.484375q0.90625 0 1.40625 0.484375q0.515625 0.46875 0.515625 1.46875l0 20.015625q0 2.03125 -1.875 2.03125q-0.90625 0 -1.421875 -0.53125q-0.5 -0.53125 -0.5 -1.5l0 -4.359375l0.625 0.671875q-0.953125 2.828125 -3.140625 4.328125q-2.1875 1.484375 -5.0625 1.484375zm25.77182 0q-3.453125 0 -5.28125 -2.109375q-1.828125 -2.125 -1.828125 -6.0625l0 -24.46875q0 -0.96875 0.484375 -1.46875q0.484375 -0.5 1.4375 -0.5q0.921875 0 1.4375 0.5q0.53125 0.5 0.53125 1.46875l0 24.1875q0 2.59375 1.03125 3.875q1.03125 1.265625 3.046875 1.265625q0.4375 0 0.765625 -0.046875q0.34375 -0.046875 0.6875 -0.046875q0.515625 -0.0625 0.734375 0.234375q0.21875 0.28125 0.21875 1.15625q0 0.859375 -0.390625 1.296875q-0.375 0.421875 -1.234375 0.5625q-0.390625 0.0625 -0.828125 0.109375q-0.421875 0.046875 -0.8125 0.046875zm16.041656 0q-2.75 0 -4.59375 -0.984375q-1.84375 -0.984375 -2.765625 -2.875q-0.90625 -1.90625 -0.90625 -4.640625l0 -12.234375l-3.21875 0q-0.8125 0 -1.25 -0.40625q-0.421875 -0.421875 -0.421875 -1.140625q0 -0.71875 0.421875 -1.09375q0.4375 -0.390625 1.25 -0.390625l3.21875 0l0 -5.515625q0 -0.96875 0.53125 -1.46875q0.53125 -0.5 1.4375 -0.5q0.90625 0 1.40625 0.5q0.515625 0.5 0.515625 1.46875l0 5.515625l6.046875 0q0.8125 0 1.25 0.390625q0.4375 0.375 0.4375 1.09375q0 0.71875 -0.4375 1.140625q-0.4375 0.40625 -1.25 0.40625l-6.046875 0l0 11.84375q0 2.734375 1.140625 4.15625q1.15625 1.421875 3.75 1.421875q0.921875 0 1.5625 -0.1875q0.65625 -0.203125 1.078125 -0.203125q0.4375 -0.046875 0.71875 0.296875q0.296875 0.328125 0.296875 1.140625q0 0.578125 -0.21875 1.0625q-0.21875 0.484375 -0.75 0.671875q-0.578125 0.1875 -1.515625 0.359375q-0.921875 0.171875 -1.6875 0.171875zm14.768768 0q-2.390625 0 -4.296875 -0.9375q-1.890625 -0.9375 -3.0 -2.5625q-1.09375 -1.640625 -1.09375 -3.65625q0 -2.59375 1.3125 -4.078125q1.328125 -1.484375 4.375 -2.109375q3.046875 -0.625 8.328125 -0.625l2.15625 0l0 2.546875l-2.109375 0q-3.890625 0 -6.125 0.359375q-2.234375 0.359375 -3.125 1.21875q-0.875 0.859375 -0.875 2.453125q0 1.96875 1.359375 3.21875q1.375 1.234375 3.71875 1.234375q1.921875 0 3.390625 -0.90625q1.46875 -0.90625 2.296875 -2.484375q0.84375 -1.59375 0.84375 -3.65625l0 -5.484375q0 -2.96875 -1.203125 -4.28125q-1.1875 -1.328125 -3.921875 -1.328125q-1.6875 0 -3.375 0.4375q-1.671875 0.421875 -3.546875 1.390625q-0.671875 0.328125 -1.15625 0.21875q-0.46875 -0.125 -0.765625 -0.5q-0.28125 -0.390625 -0.328125 -0.890625q-0.046875 -0.515625 0.203125 -0.984375q0.265625 -0.484375 0.84375 -0.78125q2.125 -1.046875 4.1875 -1.53125q2.0625 -0.484375 3.9375 -0.484375q3.015625 0 4.984375 0.984375q1.96875 0.984375 2.921875 2.984375q0.96875 1.984375 0.96875 5.109375l0 13.0q0 0.96875 -0.46875 1.5q-0.453125 0.53125 -1.3125 0.53125q-0.90625 0 -1.390625 -0.53125q-0.484375 -0.53125 -0.484375 -1.5l0 -3.734375l0.4375 0q-0.390625 1.828125 -1.46875 3.125q-1.078125 1.28125 -2.671875 2.015625q-1.578125 0.71875 -3.546875 0.71875zm20.018158 -0.09375q-0.953125 0 -1.4375 -0.53125q-0.484375 -0.53125 -0.484375 -1.5l0 -20.015625q0 -0.953125 0.484375 -1.453125q0.484375 -0.5 1.390625 -0.5q0.921875 0 1.421875 0.5q0.5 0.5 0.5 1.453125l0 4.140625l-0.53125 -0.578125q1.015625 -2.78125 3.296875 -4.203125q2.28125 -1.421875 5.25 -1.421875q2.78125 0 4.625 1.015625q1.859375 1.0 2.765625 3.046875q0.921875 2.046875 0.921875 5.15625l0 12.859375q0 0.96875 -0.515625 1.5q-0.5 0.53125 -1.40625 0.53125q-0.96875 0 -1.46875 -0.53125q-0.5 -0.53125 -0.5 -1.5l0 -12.609375q0 -3.265625 -1.28125 -4.78125q-1.265625 -1.515625 -4.046875 -1.515625q-3.21875 0 -5.125 2.0q-1.890625 1.984375 -1.890625 5.296875l0 11.609375q0 2.03125 -1.96875 2.03125zm35.23282 0.09375q-3.5 0 -6.046875 -1.53125q-2.546875 -1.546875 -3.921875 -4.296875q-1.359375 -2.765625 -1.359375 -6.421875q0 -2.78125 0.765625 -4.984375q0.78125 -2.21875 2.265625 -3.765625q1.484375 -1.5625 3.5625 -2.375q2.09375 -0.828125 4.734375 -0.828125q1.734375 0 3.609375 0.53125q1.875 0.53125 3.40625 1.828125q0.484375 0.328125 0.625 0.8125q0.140625 0.484375 0 0.9375q-0.140625 0.453125 -0.484375 0.765625q-0.328125 0.3125 -0.84375 0.359375q-0.5 0.046875 -1.03125 -0.328125q-1.25 -0.96875 -2.546875 -1.34375q-1.296875 -0.390625 -2.484375 -0.390625q-1.875 0 -3.265625 0.609375q-1.390625 0.59375 -2.359375 1.703125q-0.953125 1.09375 -1.46875 2.734375q-0.5 1.625 -0.5 3.78125q0 4.1875 1.96875 6.609375q1.96875 2.421875 5.625 2.421875q1.1875 0 2.453125 -0.375q1.28125 -0.390625 2.578125 -1.359375q0.53125 -0.375 1.0 -0.328125q0.484375 0.046875 0.8125 0.359375q0.34375 0.3125 0.46875 0.796875q0.125 0.46875 -0.03125 0.9375q-0.140625 0.453125 -0.609375 0.78125q-1.546875 1.25 -3.375 1.8125q-1.8125 0.546875 -3.546875 0.546875zm17.712921 8.53125q-0.71875 0 -1.15625 -0.390625q-0.421875 -0.375 -0.5 -1.03125q-0.0625 -0.640625 0.21875 -1.3125l3.3125 -7.4375l0 1.6875l-9.21875 -21.40625q-0.28125 -0.71875 -0.1875 -1.34375q0.09375 -0.625 0.578125 -1.0q0.484375 -0.390625 1.34375 -0.390625q0.765625 0 1.1875 0.34375q0.4375 0.328125 0.78125 1.1875l7.875 19.296875l-1.296875 0l7.96875 -19.296875q0.375 -0.859375 0.796875 -1.1875q0.4375 -0.34375 1.265625 -0.34375q0.765625 0 1.171875 0.390625q0.40625 0.375 0.46875 0.96875q0.078125 0.59375 -0.203125 1.328125l-12.296875 28.40625q-0.375 0.859375 -0.84375 1.1875q-0.453125 0.34375 -1.265625 0.34375zm43.352966 -8.53125q-2.265625 0 -4.421875 -0.390625q-2.15625 -0.390625 -4.015625 -1.109375q-1.84375 -0.71875 -3.328125 -1.8125q-0.578125 -0.4375 -0.796875 -0.984375q-0.203125 -0.5625 -0.09375 -1.109375q0.125 -0.546875 0.484375 -0.921875q0.359375 -0.390625 0.890625 -0.4375q0.53125 -0.0625 1.140625 0.328125q2.171875 1.53125 4.609375 2.234375q2.453125 0.6875 5.53125 0.6875q4.3125 0 6.390625 -1.59375q2.09375 -1.609375 2.09375 -4.25q0 -2.171875 -1.515625 -3.390625q-1.5 -1.21875 -5.046875 -1.9375l-5.0 -1.015625q-4.515625 -0.953125 -6.75 -3.140625q-2.21875 -2.1875 -2.21875 -5.828125q0 -2.265625 0.90625 -4.109375q0.90625 -1.84375 2.53125 -3.15625q1.640625 -1.328125 3.890625 -2.046875q2.265625 -0.71875 5.0 -0.71875q3.03125 0 5.640625 0.84375q2.609375 0.828125 4.734375 2.515625q0.515625 0.421875 0.703125 0.984375q0.203125 0.546875 0.0625 1.046875q-0.140625 0.5 -0.5 0.84375q-0.359375 0.328125 -0.921875 0.390625q-0.546875 0.046875 -1.21875 -0.390625q-1.921875 -1.4375 -3.984375 -2.078125q-2.0625 -0.65625 -4.5625 -0.65625q-2.546875 0 -4.390625 0.765625q-1.84375 0.765625 -2.875 2.234375q-1.03125 1.46875 -1.03125 3.375q0 2.3125 1.40625 3.65625q1.421875 1.34375 4.640625 1.96875l4.984375 1.046875q4.84375 1.015625 7.171875 3.0625q2.328125 2.03125 2.328125 5.53125q0 2.109375 -0.859375 3.890625q-0.859375 1.78125 -2.5 3.0625q-1.625 1.265625 -3.9375 1.9375q-2.296875 0.671875 -5.171875 0.671875zm28.55133 0q-3.6875 0 -6.359375 -1.46875q-2.65625 -1.46875 -4.125 -4.15625q-1.46875 -2.6875 -1.46875 -6.421875q0 -3.65625 1.4375 -6.359375q1.453125 -2.71875 3.96875 -4.25q2.515625 -1.546875 5.828125 -1.546875q2.359375 0 4.21875 0.796875q1.875 0.796875 3.1875 2.28125q1.328125 1.484375 2.015625 3.609375q0.703125 2.109375 0.703125 4.734375q0 0.78125 -0.4375 1.140625q-0.421875 0.359375 -1.234375 0.359375l-16.703125 0l0 -2.546875l15.78125 0l-0.765625 0.625q0 -2.59375 -0.765625 -4.390625q-0.765625 -1.796875 -2.234375 -2.75q-1.453125 -0.96875 -3.671875 -0.96875q-2.4375 0 -4.140625 1.125q-1.703125 1.125 -2.578125 3.125q-0.859375 1.984375 -0.859375 4.625l0 0.28125q0 4.421875 2.125 6.734375q2.140625 2.296875 6.078125 2.296875q1.640625 0 3.25 -0.421875q1.609375 -0.4375 3.140625 -1.453125q0.671875 -0.421875 1.21875 -0.390625q0.546875 0.015625 0.875 0.328125q0.34375 0.3125 0.46875 0.765625q0.125 0.453125 -0.09375 0.984375q-0.21875 0.515625 -0.84375 0.90625q-1.578125 1.15625 -3.75 1.78125q-2.15625 0.625 -4.265625 0.625zm16.989197 -0.09375q-0.953125 0 -1.46875 -0.53125q-0.5 -0.53125 -0.5 -1.5l0 -20.015625q0 -0.953125 0.484375 -1.453125q0.484375 -0.5 1.390625 -0.5q0.921875 0 1.421875 0.5q0.5 0.5 0.5 1.453125l0 3.890625l-0.484375 0q0.78125 -2.828125 2.9375 -4.359375q2.15625 -1.546875 5.328125 -1.640625q0.71875 -0.046875 1.140625 0.3125q0.4375 0.359375 0.484375 1.234375q0.046875 0.8125 -0.390625 1.296875q-0.421875 0.46875 -1.328125 0.5625l-0.765625 0.109375q-3.265625 0.28125 -5.03125 2.078125q-1.75 1.796875 -1.75 4.921875l0 11.609375q0 0.96875 -0.5 1.5q-0.5 0.53125 -1.46875 0.53125zm25.358398 0q-0.828125 0 -1.453125 -0.453125q-0.625 -0.46875 -1.046875 -1.421875l-8.3125 -19.390625q-0.328125 -0.71875 -0.234375 -1.34375q0.09375 -0.625 0.578125 -1.0q0.484375 -0.390625 1.34375 -0.390625q0.765625 0 1.1875 0.34375q0.4375 0.328125 0.78125 1.1875l7.875 19.25l-1.296875 0l8.015625 -19.25q0.328125 -0.859375 0.75 -1.1875q0.4375 -0.34375 1.265625 -0.34375q0.765625 0 1.171875 0.390625q0.40625 0.375 0.46875 0.96875q0.078125 0.59375 -0.203125 1.328125l-8.40625 19.4375q-0.328125 0.953125 -0.984375 1.421875q-0.640625 0.453125 -1.5 0.453125zm17.938782 -0.109375q-0.953125 0 -1.4375 -0.546875q-0.484375 -0.546875 -0.484375 -1.5625l0 -19.625q0 -1.015625 0.484375 -1.53125q0.484375 -0.53125 1.4375 -0.53125q0.921875 0 1.4375 0.53125q0.53125 0.515625 0.53125 1.53125l0 19.625q0 1.015625 -0.5 1.5625q-0.5 0.546875 -1.46875 0.546875zm0 -29.171875q-1.1875 0 -1.859375 -0.640625q-0.671875 -0.65625 -0.671875 -1.765625q0 -1.15625 0.671875 -1.75q0.671875 -0.609375 1.859375 -0.609375q1.25 0 1.890625 0.609375q0.65625 0.59375 0.65625 1.75q0 1.109375 -0.65625 1.765625q-0.640625 0.640625 -1.890625 0.640625zm19.104736 29.375q-3.5 0 -6.046875 -1.53125q-2.546875 -1.546875 -3.921875 -4.296875q-1.359375 -2.765625 -1.359375 -6.421875q0 -2.78125 0.765625 -4.984375q0.78125 -2.21875 2.265625 -3.765625q1.484375 -1.5625 3.5625 -2.375q2.09375 -0.828125 4.734375 -0.828125q1.734375 0 3.609375 0.53125q1.875 0.53125 3.40625 1.828125q0.484375 0.328125 0.625 0.8125q0.140625 0.484375 0 0.9375q-0.140625 0.453125 -0.484375 0.765625q-0.328125 0.3125 -0.84375 0.359375q-0.5 0.046875 -1.03125 -0.328125q-1.25 -0.96875 -2.546875 -1.34375q-1.296875 -0.390625 -2.484375 -0.390625q-1.875 0 -3.265625 0.609375q-1.390625 0.59375 -2.359375 1.703125q-0.953125 1.09375 -1.46875 2.734375q-0.5 1.625 -0.5 3.78125q0 4.1875 1.96875 6.609375q1.96875 2.421875 5.625 2.421875q1.1875 0 2.453125 -0.375q1.28125 -0.390625 2.578125 -1.359375q0.53125 -0.375 1.0 -0.328125q0.484375 0.046875 0.8125 0.359375q0.34375 0.3125 0.46875 0.796875q0.125 0.46875 -0.03125 0.9375q-0.140625 0.453125 -0.609375 0.78125q-1.546875 1.25 -3.375 1.8125q-1.8125 0.546875 -3.546875 0.546875zm22.36908 0q-3.6875 0 -6.359375 -1.46875q-2.65625 -1.46875 -4.125 -4.15625q-1.46875 -2.6875 -1.46875 -6.421875q0 -3.65625 1.4375 -6.359375q1.453125 -2.71875 3.96875 -4.25q2.515625 -1.546875 5.828125 -1.546875q2.359375 0 4.21875 0.796875q1.875 0.796875 3.1875 2.28125q1.328125 1.484375 2.015625 3.609375q0.703125 2.109375 0.703125 4.734375q0 0.78125 -0.4375 1.140625q-0.421875 0.359375 -1.234375 0.359375l-16.703125 0l0 -2.546875l15.78125 0l-0.765625 0.625q0 -2.59375 -0.765625 -4.390625q-0.765625 -1.796875 -2.234375 -2.75q-1.453125 -0.96875 -3.671875 -0.96875q-2.4375 0 -4.140625 1.125q-1.703125 1.125 -2.578125 3.125q-0.859375 1.984375 -0.859375 4.625l0 0.28125q0 4.421875 2.125 6.734375q2.140625 2.296875 6.078125 2.296875q1.640625 0 3.25 -0.421875q1.609375 -0.4375 3.140625 -1.453125q0.671875 -0.421875 1.21875 -0.390625q0.546875 0.015625 0.875 0.328125q0.34375 0.3125 0.46875 0.765625q0.125 0.453125 -0.09375 0.984375q-0.21875 0.515625 -0.84375 0.90625q-1.578125 1.15625 -3.75 1.78125q-2.15625 0.625 -4.265625 0.625zm22.895447 0q-2.15625 0 -4.34375 -0.53125q-2.1875 -0.53125 -4.046875 -1.828125q-0.484375 -0.328125 -0.6875 -0.78125q-0.1875 -0.46875 -0.109375 -0.921875q0.078125 -0.453125 0.390625 -0.78125q0.3125 -0.34375 0.765625 -0.40625q0.453125 -0.078125 1.03125 0.203125q1.875 1.15625 3.625 1.609375q1.75 0.453125 3.46875 0.453125q2.75 0 4.140625 -1.0q1.390625 -1.015625 1.390625 -2.734375q0 -1.34375 -0.921875 -2.140625q-0.90625 -0.796875 -2.875 -1.21875l-4.375 -0.96875q-3.015625 -0.625 -4.484375 -2.15625q-1.453125 -1.53125 -1.453125 -3.984375q0 -2.15625 1.125 -3.71875q1.125 -1.5625 3.1875 -2.421875q2.0625 -0.875 4.796875 -0.875q2.109375 0 4.0 0.5625q1.90625 0.546875 3.4375 1.75q0.484375 0.328125 0.65625 0.796875q0.171875 0.453125 0.046875 0.90625q-0.125 0.453125 -0.46875 0.765625q-0.328125 0.3125 -0.8125 0.359375q-0.46875 0.046875 -1.0 -0.28125q-1.4375 -0.96875 -2.9375 -1.421875q-1.484375 -0.453125 -2.921875 -0.453125q-2.6875 0 -4.078125 1.0625q-1.390625 1.046875 -1.390625 2.78125q0 1.34375 0.859375 2.203125q0.875 0.859375 2.6875 1.25l4.375 0.90625q3.125 0.671875 4.671875 2.140625q1.5625 1.46875 1.5625 3.953125q0 3.171875 -2.546875 5.046875q-2.53125 1.875 -6.765625 1.875z" fill-rule="nonzero"/><path fill="#000000" fill-opacity="0.0" d="m189.3412 248.99213l575.68506 0l0 42.015747l-575.68506 0z" fill-rule="evenodd"/><path fill="#ffffff" d="m220.95677 279.45862q-0.34375 3.265625 -2.328125 5.0q-1.984375 1.71875 -5.265625 1.71875q-2.296875 0 -4.078125 -1.140625q-1.765625 -1.15625 -2.734375 -3.265625q-0.953125 -2.109375 -0.96875 -4.8125l0 -2.6875q0 -2.75 0.953125 -4.875q0.96875 -2.125 2.78125 -3.28125q1.8125 -1.171875 4.171875 -1.171875q3.3125 0 5.234375 1.796875q1.921875 1.796875 2.234375 4.96875l-1.75 0q-0.65625 -5.265625 -5.71875 -5.265625q-2.8125 0 -4.484375 2.109375q-1.65625 2.09375 -1.65625 5.796875l0 2.515625q0 3.578125 1.625 5.71875q1.625 2.125 4.390625 2.125q2.734375 0 4.125 -1.3125q1.390625 -1.3125 1.71875 -3.9375l1.75 0zm13.732971 4.5q-1.53125 2.21875 -4.90625 2.21875q-2.453125 0 -3.734375 -1.421875q-1.265625 -1.421875 -1.296875 -4.21875l0 -10.0l1.6875 0l0 9.78125q0 4.390625 3.546875 4.390625q3.6875 0 4.671875 -3.0625l0 -11.109375l1.703125 0l0 15.359375l-1.640625 0l-0.03125 -1.9375zm15.277008 -1.96875q0 -1.265625 -1.015625 -2.03125q-1.015625 -0.765625 -3.0625 -1.1875q-2.03125 -0.4375 -3.171875 -1.0q-1.125 -0.5625 -1.671875 -1.359375q-0.546875 -0.8125 -0.546875 -1.96875q0 -1.8125 1.515625 -3.0q1.53125 -1.1875 3.890625 -1.1875q2.578125 0 4.125 1.28125q1.5625 1.265625 1.5625 3.3125l-1.703125 0q0 -1.359375 -1.140625 -2.25q-1.125 -0.890625 -2.84375 -0.890625q-1.671875 0 -2.6875 0.75q-1.015625 0.734375 -1.015625 1.921875q0 1.15625 0.84375 1.796875q0.84375 0.625 3.078125 1.15625q2.25 0.515625 3.359375 1.109375q1.109375 0.59375 1.640625 1.4375q0.546875 0.84375 0.546875 2.03125q0 1.9375 -1.578125 3.109375q-1.5625 1.15625 -4.078125 1.15625q-2.6875 0 -4.359375 -1.296875q-1.65625 -1.296875 -1.65625 -3.28125l1.703125 0q0.09375 1.484375 1.25 2.3125q1.15625 0.828125 3.0625 0.828125q1.765625 0 2.859375 -0.765625q1.09375 -0.78125 1.09375 -1.984375zm8.168869 -15.375l0 3.921875l3.171875 0l0 1.390625l-3.171875 0l0 10.234375q0 1.28125 0.453125 1.90625q0.46875 0.625 1.546875 0.625q0.421875 0 1.375 -0.140625l0.0625 1.390625q-0.65625 0.234375 -1.8125 0.234375q-1.75 0 -2.546875 -1.015625q-0.78125 -1.015625 -0.78125 -2.984375l0 -10.25l-2.8281403 0l0 -1.390625l2.8281403 0l0 -3.921875l1.703125 0zm5.475464 11.375q0 -2.21875 0.859375 -3.984375q0.859375 -1.78125 2.421875 -2.765625q1.5625 -0.984375 3.546875 -0.984375q3.078125 0 4.96875 2.15625q1.90625 2.140625 1.90625 5.6875l0 0.359375q0 2.234375 -0.859375 4.015625q-0.859375 1.78125 -2.421875 2.75q-1.5625 0.953125 -3.5625 0.953125q-3.046875 0 -4.953125 -2.140625q-1.90625 -2.15625 -1.90625 -5.703125l0 -0.34375zm1.703125 0.46875q0 2.75 1.421875 4.515625q1.421875 1.765625 3.734375 1.765625q2.296875 0 3.71875 -1.765625q1.4375 -1.765625 1.4375 -4.65625l0 -0.328125q0 -1.75 -0.65625 -3.21875q-0.65625 -1.46875 -1.828125 -2.265625q-1.171875 -0.796875 -2.703125 -0.796875q-2.265625 0 -3.703125 1.78125q-1.421875 1.78125 -1.421875 4.65625l0 0.3125zm17.057953 -7.921875l0.046875 2.5q0.859375 -1.390625 2.125 -2.078125q1.28125 -0.703125 2.84375 -0.703125q3.640625 0 4.609375 2.984375q0.828125 -1.4375 2.203125 -2.203125q1.375 -0.78125 3.03125 -0.78125q4.953125 0 5.046875 5.390625l0 10.25l-1.703125 0l0 -10.125q-0.015625 -2.046875 -0.890625 -3.03125q-0.875 -1.0 -2.84375 -1.0q-1.828125 0.015625 -3.09375 1.171875q-1.265625 1.15625 -1.40625 2.828125l0 10.15625l-1.703125 0l0 -10.25q-0.015625 -1.96875 -0.9375 -2.9375q-0.90625 -0.96875 -2.8125 -0.96875q-1.59375 0 -2.75 0.921875q-1.140625 0.90625 -1.703125 2.703125l0 10.53125l-1.703125 0l0 -15.359375l1.640625 0zm40.963654 15.359375q-0.25 -0.71875 -0.328125 -2.140625q-0.890625 1.15625 -2.28125 1.796875q-1.375 0.625 -2.921875 0.625q-2.21875 0 -3.59375 -1.234375q-1.359375 -1.234375 -1.359375 -3.125q0 -2.234375 1.859375 -3.53125q1.875 -1.3125 5.203125 -1.3125l3.078125 0l0 -1.75q0 -1.640625 -1.015625 -2.578125q-1.015625 -0.953125 -2.953125 -0.953125q-1.78125 0 -2.953125 0.90625q-1.15625 0.90625 -1.15625 2.1875l-1.703125 -0.015625q0 -1.828125 1.703125 -3.171875q1.703125 -1.34375 4.1875 -1.34375q2.578125 0 4.0625 1.296875q1.484375 1.28125 1.515625 3.578125l0 7.265625q0 2.21875 0.46875 3.328125l0 0.171875l-1.8125 0zm-5.34375 -1.21875q1.703125 0 3.046875 -0.8125q1.34375 -0.828125 1.953125 -2.21875l0 -3.375l-3.03125 0q-2.546875 0.03125 -3.984375 0.9375q-1.421875 0.890625 -1.421875 2.46875q0 1.296875 0.953125 2.15625q0.953125 0.84375 2.484375 0.84375zm12.832794 -14.140625l0.0625 2.625q0.859375 -1.40625 2.15625 -2.15625q1.296875 -0.75 2.84375 -0.75q2.46875 0 3.671875 1.390625q1.21875 1.390625 1.234375 4.171875l0 10.078125l-1.6875 0l0 -10.09375q-0.015625 -2.046875 -0.875 -3.046875q-0.859375 -1.015625 -2.75 -1.015625q-1.578125 0 -2.796875 0.984375q-1.203125 0.984375 -1.78125 2.65625l0 10.515625l-1.6875 0l0 -15.359375l1.609375 0zm13.667633 7.546875q0 -3.578125 1.59375 -5.703125q1.59375 -2.125 4.34375 -2.125q3.109375 0 4.734375 2.453125l0 -8.609375l1.6875 0l0 21.796875l-1.59375 0l-0.0625 -2.046875q-1.640625 2.328125 -4.796875 2.328125q-2.65625 0 -4.28125 -2.125q-1.625 -2.140625 -1.625 -5.78125l0 -0.1875zm1.71875 0.296875q0 2.9375 1.171875 4.640625q1.1875 1.6875 3.328125 1.6875q3.140625 0 4.453125 -2.765625l0 -7.21875q-1.3125 -2.984375 -4.421875 -2.984375q-2.140625 0 -3.34375 1.6875q-1.1875 1.671875 -1.1875 4.953125zm27.856567 6.359375q1.765625 0 2.96875 -1.0q1.203125 -1.0 1.296875 -2.578125l1.640625 0q-0.078125 1.40625 -0.890625 2.5625q-0.796875 1.15625 -2.140625 1.8125q-1.34375 0.640625 -2.875 0.640625q-3.015625 0 -4.796875 -2.09375q-1.765625 -2.109375 -1.765625 -5.65625l0 -0.5q0 -2.28125 0.796875 -4.015625q0.796875 -1.75 2.28125 -2.703125q1.484375 -0.953125 3.46875 -0.953125q2.53125 0 4.171875 1.515625q1.640625 1.5 1.75 3.953125l-1.640625 0q-0.109375 -1.8125 -1.296875 -2.90625q-1.1875 -1.109375 -2.984375 -1.109375q-2.296875 0 -3.578125 1.65625q-1.265625 1.65625 -1.265625 4.65625l0 0.5q0 2.9375 1.265625 4.578125q1.28125 1.640625 3.59375 1.640625zm18.986786 1.15625q-0.25 -0.71875 -0.328125 -2.140625q-0.890625 1.15625 -2.28125 1.796875q-1.375 0.625 -2.921875 0.625q-2.21875 0 -3.59375 -1.234375q-1.359375 -1.234375 -1.359375 -3.125q0 -2.234375 1.859375 -3.53125q1.875 -1.3125 5.203125 -1.3125l3.078125 0l0 -1.75q0 -1.640625 -1.015625 -2.578125q-1.015625 -0.953125 -2.953125 -0.953125q-1.78125 0 -2.953125 0.90625q-1.15625 0.90625 -1.15625 2.1875l-1.703125 -0.015625q0 -1.828125 1.703125 -3.171875q1.703125 -1.34375 4.1875 -1.34375q2.578125 0 4.0625 1.296875q1.484375 1.28125 1.515625 3.578125l0 7.265625q0 2.21875 0.46875 3.328125l0 0.171875l-1.8125 0zm-5.34375 -1.21875q1.703125 0 3.046875 -0.8125q1.34375 -0.828125 1.953125 -2.21875l0 -3.375l-3.03125 0q-2.546875 0.03125 -3.984375 0.9375q-1.421875 0.890625 -1.421875 2.46875q0 1.296875 0.953125 2.15625q0.953125 0.84375 2.484375 0.84375zm12.832794 -14.140625l0.0625 2.625q0.859375 -1.40625 2.15625 -2.15625q1.296875 -0.75 2.84375 -0.75q2.46875 0 3.671875 1.390625q1.21875 1.390625 1.234375 4.171875l0 10.078125l-1.6875 0l0 -10.09375q-0.015625 -2.046875 -0.875 -3.046875q-0.859375 -1.015625 -2.75 -1.015625q-1.578125 0 -2.796875 0.984375q-1.203125 0.984375 -1.78125 2.65625l0 10.515625l-1.6875 0l0 -15.359375l1.609375 0zm20.484589 7.453125q0 -2.21875 0.859375 -3.984375q0.859375 -1.78125 2.421875 -2.765625q1.5625 -0.984375 3.546875 -0.984375q3.078125 0 4.96875 2.15625q1.90625 2.140625 1.90625 5.6875l0 0.359375q0 2.234375 -0.859375 4.015625q-0.859375 1.78125 -2.421875 2.75q-1.5625 0.953125 -3.5625 0.953125q-3.046875 0 -4.953125 -2.140625q-1.90625 -2.15625 -1.90625 -5.703125l0 -0.34375zm1.703125 0.46875q0 2.75 1.421875 4.515625q1.421875 1.765625 3.734375 1.765625q2.296875 0 3.71875 -1.765625q1.4375 -1.765625 1.4375 -4.65625l0 -0.328125q0 -1.75 -0.65625 -3.21875q-0.65625 -1.46875 -1.828125 -2.265625q-1.171875 -0.796875 -2.703125 -0.796875q-2.265625 0 -3.703125 1.78125q-1.421875 1.78125 -1.421875 4.65625l0 0.3125zm17.120453 -7.921875l0.0625 2.625q0.859375 -1.40625 2.15625 -2.15625q1.296875 -0.75 2.84375 -0.75q2.4687805 0 3.6719055 1.390625q1.21875 1.390625 1.234375 4.171875l0 10.078125l-1.6875 0l0 -10.09375q-0.015625 -2.046875 -0.875 -3.046875q-0.859375 -1.015625 -2.7500305 -1.015625q-1.578125 0 -2.796875 0.984375q-1.203125 0.984375 -1.78125 2.65625l0 10.515625l-1.6875 0l0 -15.359375l1.609375 0zm16.245758 15.359375l-1.703125 0l0 -21.796875l1.703125 0l0 21.796875zm9.4823 -2.4375l4.484375 -12.921875l1.828125 0l-6.546875 17.96875l-0.34375 0.796875q-1.265625 2.796875 -3.90625 2.796875q-0.609375 0 -1.296875 -0.203125l-0.015625 -1.40625l0.875 0.09375q1.25 0 2.015625 -0.625q0.78125 -0.609375 1.3125 -2.125l0.765625 -2.0625l-5.796875 -15.234375l1.859375 0l4.765625 12.921875zm28.374481 -5.078125q0 3.578125 -1.59375 5.6875q-1.59375 2.109375 -4.265625 2.109375q-3.21875 0 -4.859375 -2.375l-0.078125 2.09375l-1.578125 0l0 -21.796875l1.6875 0l0 8.671875q1.609375 -2.515625 4.796875 -2.515625q2.71875 0 4.296875 2.078125q1.59375 2.078125 1.59375 5.78125l0 0.265625zm-1.703125 -0.296875q0 -3.046875 -1.1875 -4.6875q-1.171875 -1.65625 -3.3125 -1.65625q-1.640625 0 -2.78125 0.796875q-1.125 0.796875 -1.703125 2.34375l0 6.921875q1.28125 2.90625 4.515625 2.90625q2.09375 0 3.28125 -1.65625q1.1875 -1.671875 1.1875 -4.96875zm11.387665 8.09375q-1.953125 0 -3.546875 -0.953125q-1.578125 -0.96875 -2.453125 -2.6875q-0.875 -1.734375 -0.875 -3.875l0 -0.609375q0 -2.21875 0.859375 -3.984375q0.859375 -1.78125 2.390625 -2.796875q1.53125 -1.015625 3.3125 -1.015625q2.796875 0 4.4375 1.90625q1.640625 1.90625 1.640625 5.21875l0 0.953125l-10.953125 0l0 0.328125q0 2.609375 1.484375 4.34375q1.5 1.734375 3.78125 1.734375q1.359375 0 2.390625 -0.484375q1.046875 -0.5 1.90625 -1.59375l1.0625 0.8125q-1.875 2.703125 -5.4375 2.703125zm-0.3125 -14.46875q-1.90625 0 -3.21875 1.40625q-1.3125 1.40625 -1.609375 3.765625l9.21875 0l0 -0.1875q-0.078125 -2.203125 -1.265625 -3.59375q-1.1875 -1.390625 -3.125 -1.390625zm23.549408 0.28125q-0.546875 -0.09375 -1.15625 -0.09375q-1.59375 0 -2.6875 0.890625q-1.09375 0.875 -1.5625 2.5625l0 10.546875l-1.6875 0l0 -15.359375l1.65625 0l0.03125 2.453125q1.34375 -2.734375 4.328125 -2.734375q0.703125 0 1.125 0.1875l-0.046875 1.546875zm8.351501 14.1875q-1.953125 0 -3.546875 -0.953125q-1.578125 -0.96875 -2.453125 -2.6875q-0.875 -1.734375 -0.875 -3.875l0 -0.609375q0 -2.21875 0.859375 -3.984375q0.859375 -1.78125 2.390625 -2.796875q1.53125 -1.015625 3.3125 -1.015625q2.796875 0 4.4375 1.90625q1.640625 1.90625 1.640625 5.21875l0 0.953125l-10.953125 0l0 0.328125q0 2.609375 1.484375 4.34375q1.5 1.734375 3.78125 1.734375q1.359375 0 2.390625 -0.484375q1.046875 -0.5 1.90625 -1.59375l1.0625 0.8125q-1.875 2.703125 -5.4375 2.703125zm-0.3125 -14.46875q-1.90625 0 -3.21875 1.40625q-1.3125 1.40625 -1.609375 3.765625l9.21875 0l0 -0.1875q-0.078125 -2.203125 -1.265625 -3.59375q-1.1875 -1.390625 -3.125 -1.390625zm8.701233 6.375q0 -3.609375 1.59375 -5.71875q1.59375 -2.109375 4.375 -2.109375q3.09375 0 4.71875 2.375l0.078125 -2.09375l1.59375 0l0 21.265625l-1.703125 0l0 -7.8125q-1.671875 2.1875 -4.71875 2.1875q-2.703125 0 -4.328125 -2.125q-1.609375 -2.125 -1.609375 -5.75l0 -0.21875zm1.71875 0.296875q0 2.96875 1.1875 4.671875q1.203125 1.6875 3.34375 1.6875q3.046875 0 4.40625 -2.640625l0 -7.53125q-0.640625 -1.375 -1.765625 -2.109375q-1.125 -0.75 -2.609375 -0.75q-2.15625 0 -3.359375 1.703125q-1.203125 1.6875 -1.203125 4.96875zm25.0495 5.578125q-1.53125 2.21875 -4.90625 2.21875q-2.453125 0 -3.734375 -1.421875q-1.265625 -1.421875 -1.296875 -4.21875l0 -10.0l1.6875 0l0 9.78125q0 4.390625 3.546875 4.390625q3.6875 0 4.671875 -3.0625l0 -11.109375l1.703125 0l0 15.359375l-1.640625 0l-0.03125 -1.9375zm12.026978 2.21875q-1.953125 0 -3.546875 -0.953125q-1.578125 -0.96875 -2.453125 -2.6875q-0.875 -1.734375 -0.875 -3.875l0 -0.609375q0 -2.21875 0.859375 -3.984375q0.859375 -1.78125 2.390625 -2.796875q1.53125 -1.015625 3.3125 -1.015625q2.796875 0 4.4375 1.90625q1.640625 1.90625 1.640625 5.21875l0 0.953125l-10.953125 0l0 0.328125q0 2.609375 1.484375 4.34375q1.5 1.734375 3.78125 1.734375q1.359375 0 2.390625 -0.484375q1.046875 -0.5 1.90625 -1.59375l1.0625 0.8125q-1.875 2.703125 -5.4375 2.703125zm-0.3125 -14.46875q-1.90625 0 -3.21875 1.40625q-1.3125 1.40625 -1.609375 3.765625l9.21875 0l0 -0.1875q-0.078125 -2.203125 -1.265625 -3.59375q-1.1875 -1.390625 -3.125 -1.390625zm18.576233 10.28125q0 -1.265625 -1.015625 -2.03125q-1.015625 -0.765625 -3.0625 -1.1875q-2.03125 -0.4375 -3.171875 -1.0q-1.125 -0.5625 -1.671875 -1.359375q-0.546875 -0.8125 -0.546875 -1.96875q0 -1.8125 1.515625 -3.0q1.53125 -1.1875 3.890625 -1.1875q2.578125 0 4.125 1.28125q1.5625 1.265625 1.5625 3.3125l-1.703125 0q0 -1.359375 -1.140625 -2.25q-1.125 -0.890625 -2.84375 -0.890625q-1.671875 0 -2.6875 0.75q-1.015625 0.734375 -1.015625 1.921875q0 1.15625 0.84375 1.796875q0.84375 0.625 3.078125 1.15625q2.25 0.515625 3.359375 1.109375q1.109375 0.59375 1.640625 1.4375q0.546875 0.84375 0.546875 2.03125q0 1.9375 -1.578125 3.109375q-1.5625 1.15625 -4.078125 1.15625q-2.6875 0 -4.359375 -1.296875q-1.65625 -1.296875 -1.65625 -3.28125l1.703125 0q0.09375 1.484375 1.25 2.3125q1.15625 0.828125 3.0625 0.828125q1.765625 0 2.859375 -0.765625q1.09375 -0.78125 1.09375 -1.984375zm8.168884 -15.375l0 3.921875l3.171875 0l0 1.390625l-3.171875 0l0 10.234375q0 1.28125 0.453125 1.90625q0.46875 0.625 1.546875 0.625q0.421875 0 1.375 -0.140625l0.0625 1.390625q-0.65625 0.234375 -1.8125 0.234375q-1.75 0 -2.546875 -1.015625q-0.78125 -1.015625 -0.78125 -2.984375l0 -10.25l-2.828125 0l0 -1.390625l2.828125 0l0 -3.921875l1.703125 0zm12.634338 19.5625q-1.953125 0 -3.546875 -0.953125q-1.578125 -0.96875 -2.453125 -2.6875q-0.875 -1.734375 -0.875 -3.875l0 -0.609375q0 -2.21875 0.859375 -3.984375q0.859375 -1.78125 2.390625 -2.796875q1.53125 -1.015625 3.3125 -1.015625q2.796875 0 4.4375 1.90625q1.640625 1.90625 1.640625 5.21875l0 0.953125l-10.953125 0l0 0.328125q0 2.609375 1.484375 4.34375q1.5 1.734375 3.78125 1.734375q1.359375 0 2.390625 -0.484375q1.046875 -0.5 1.90625 -1.59375l1.0625 0.8125q-1.875 2.703125 -5.4375 2.703125zm-0.3125 -14.46875q-1.90625 0 -3.21875 1.40625q-1.3125 1.40625 -1.609375 3.765625l9.21875 0l0 -0.1875q-0.078125 -2.203125 -1.265625 -3.59375q-1.1875 -1.390625 -3.125 -1.390625zm8.701233 6.375q0 -3.578125 1.59375 -5.703125q1.59375 -2.125 4.34375 -2.125q3.109375 0 4.734375 2.453125l0 -8.609375l1.6875 0l0 21.796875l-1.59375 0l-0.0625 -2.046875q-1.640625 2.328125 -4.796875 2.328125q-2.65625 0 -4.28125 -2.125q-1.625 -2.140625 -1.625 -5.78125l0 -0.1875zm1.71875 0.296875q0 2.9375 1.171875 4.640625q1.1875 1.6875 3.328125 1.6875q3.140625 0 4.453125 -2.765625l0 -7.21875q-1.3125 -2.984375 -4.421875 -2.984375q-2.140625 0 -3.34375 1.6875q-1.1875 1.671875 -1.1875 4.953125zm24.825317 -11.765625l0 3.921875l3.171875 0l0 1.390625l-3.171875 0l0 10.234375q0 1.28125 0.453125 1.90625q0.46875 0.625 1.546875 0.625q0.421875 0 1.375 -0.140625l0.0625 1.390625q-0.65625 0.234375 -1.8125 0.234375q-1.75 0 -2.546875 -1.015625q-0.78125 -1.015625 -0.78125 -2.984375l0 -10.25l-2.828125 0l0 -1.390625l2.828125 0l0 -3.921875l1.703125 0zm8.384338 6.53125q0.828125 -1.390625 2.125 -2.140625q1.3125 -0.75 2.859375 -0.75q2.46875 0 3.671875 1.390625q1.21875 1.390625 1.234375 4.171875l0 10.078125l-1.6875 0l0 -10.09375q-0.015625 -2.046875 -0.875 -3.046875q-0.859375 -1.015625 -2.75 -1.015625q-1.578125 0 -2.796875 0.984375q-1.203125 0.984375 -1.78125 2.65625l0 10.515625l-1.6875 0l0 -21.796875l1.6875 0l0 9.046875zm21.356567 -1.15625q-0.546875 -0.09375 -1.15625 -0.09375q-1.59375 0 -2.6875 0.890625q-1.09375 0.875 -1.5625 2.5625l0 10.546875l-1.6875 0l0 -15.359375l1.65625 0l0.03125 2.453125q1.34375 -2.734375 4.328125 -2.734375q0.703125 0 1.125 0.1875l-0.046875 1.546875zm1.4622803 6.0q0 -2.21875 0.859375 -3.984375q0.859375 -1.78125 2.421875 -2.765625q1.5625 -0.984375 3.546875 -0.984375q3.078125 0 4.96875 2.15625q1.90625 2.140625 1.90625 5.6875l0 0.359375q0 2.234375 -0.859375 4.015625q-0.859375 1.78125 -2.421875 2.75q-1.5625 0.953125 -3.5625 0.953125q-3.046875 0 -4.953125 -2.140625q-1.90625 -2.15625 -1.90625 -5.703125l0 -0.34375zm1.703125 0.46875q0 2.75 1.421875 4.515625q1.421875 1.765625 3.734375 1.765625q2.296875 0 3.71875 -1.765625q1.4375 -1.765625 1.4375 -4.65625l0 -0.328125q0 -1.75 -0.65625 -3.21875q-0.65625 -1.46875 -1.828125 -2.265625q-1.171875 -0.796875 -2.703125 -0.796875q-2.265625 0 -3.703125 1.78125q-1.421875 1.78125 -1.421875 4.65625l0 0.3125zm25.386047 5.5q-1.53125 2.21875 -4.90625 2.21875q-2.453125 0 -3.734375 -1.421875q-1.265625 -1.421875 -1.296875 -4.21875l0 -10.0l1.6875 0l0 9.78125q0 4.390625 3.546875 4.390625q3.6875 0 4.671875 -3.0625l0 -11.109375l1.703125 0l0 15.359375l-1.640625 0l-0.03125 -1.9375zm5.4019775 -5.875q0 -3.609375 1.59375 -5.71875q1.59375 -2.109375 4.34375 -2.109375q3.125 0 4.765625 2.5l0.078125 -2.21875l1.59375 0l0 15.046875q0 2.96875 -1.65625 4.6875q-1.65625 1.734375 -4.5 1.734375q-1.609375 0 -3.0625 -0.71875q-1.453125 -0.703125 -2.296875 -1.90625l0.953125 -1.015625q1.8125 2.21875 4.296875 2.21875q2.125 0 3.3125 -1.265625q1.1875 -1.25 1.234375 -3.484375l0 -1.921875q-1.625 2.265625 -4.75 2.265625q-2.671875 0 -4.296875 -2.125q-1.609375 -2.125 -1.609375 -5.75l0 -0.21875zm1.71875 0.296875q0 2.9375 1.171875 4.640625q1.1875 1.6875 3.328125 1.6875q3.140625 0 4.4375 -2.8125l0 -7.140625q-0.59375 -1.46875 -1.71875 -2.234375q-1.109375 -0.78125 -2.6875 -0.78125q-2.140625 0 -3.34375 1.6875q-1.1875 1.671875 -1.1875 4.953125zm16.776855 -5.234375q0.828125 -1.390625 2.125 -2.140625q1.3125 -0.75 2.859375 -0.75q2.46875 0 3.671875 1.390625q1.21875 1.390625 1.234375 4.171875l0 10.078125l-1.6875 0l0 -10.09375q-0.015625 -2.046875 -0.875 -3.046875q-0.859375 -1.015625 -2.75 -1.015625q-1.578125 0 -2.796875 0.984375q-1.203125 0.984375 -1.78125 2.65625l0 10.515625l-1.6875 0l0 -21.796875l1.6875 0l0 9.046875z" fill-rule="nonzero"/><path fill="#ffffff" d="m227.3431 320.77612q-0.25 -0.71875 -0.328125 -2.140625q-0.890625 1.15625 -2.28125 1.796875q-1.375 0.625 -2.921875 0.625q-2.21875 0 -3.59375 -1.234375q-1.359375 -1.234375 -1.359375 -3.125q0 -2.234375 1.859375 -3.53125q1.875 -1.3125 5.203125 -1.3125l3.078125 0l0 -1.75q0 -1.640625 -1.015625 -2.578125q-1.015625 -0.953125 -2.953125 -0.953125q-1.78125 0 -2.953125 0.90625q-1.15625 0.90625 -1.15625 2.1875l-1.703125 -0.015625q0 -1.828125 1.703125 -3.171875q1.703125 -1.34375 4.1875 -1.34375q2.578125 0 4.0625 1.296875q1.484375 1.28125 1.515625 3.578125l0 7.265625q0 2.21875 0.46875 3.328125l0 0.171875l-1.8125 0zm-5.34375 -1.21875q1.703125 0 3.046875 -0.8125q1.34375 -0.828125 1.953125 -2.21875l0 -3.375l-3.03125 0q-2.546875 0.03125 -3.984375 0.9375q-1.421875 0.890625 -1.421875 2.46875q0 1.296875 0.953125 2.15625q0.953125 0.84375 2.484375 0.84375zm19.83725 -14.140625l0.046875 2.5q0.859375 -1.390625 2.125 -2.078125q1.28125 -0.703125 2.84375 -0.703125q3.640625 0 4.609375 2.984375q0.828125 -1.4375 2.203125 -2.203125q1.375 -0.78125 3.0312653 -0.78125q4.953125 0 5.046875 5.390625l0 10.25l-1.703125 0l0 -10.125q-0.015625 -2.046875 -0.890625 -3.03125q-0.875 -1.0 -2.84375 -1.0q-1.8281403 0.015625 -3.0937653 1.171875q-1.265625 1.15625 -1.40625 2.828125l0 10.15625l-1.703125 0l0 -10.25q-0.015625 -1.96875 -0.9375 -2.9375q-0.90625 -0.96875 -2.8125 -0.96875q-1.59375 0 -2.75 0.921875q-1.140625 0.90625 -1.703125 2.703125l0 10.53125l-1.703125 0l0 -15.359375l1.640625 0zm30.146713 15.640625q-1.953125 0 -3.546875 -0.953125q-1.578125 -0.96875 -2.453125 -2.6875q-0.875 -1.734375 -0.875 -3.875l0 -0.609375q0 -2.21875 0.859375 -3.984375q0.859375 -1.78125 2.390625 -2.796875q1.53125 -1.015625 3.3125 -1.015625q2.796875 0 4.4375 1.90625q1.640625 1.90625 1.640625 5.21875l0 0.953125l-10.953125 0l0 0.328125q0 2.609375 1.484375 4.34375q1.5 1.734375 3.78125 1.734375q1.359375 0 2.390625 -0.484375q1.046875 -0.5 1.90625 -1.59375l1.0625 0.8125q-1.875 2.703125 -5.4375 2.703125zm-0.3125 -14.46875q-1.90625 0 -3.21875 1.40625q-1.3125 1.40625 -1.609375 3.765625l9.21875 0l0 -0.1875q-0.078125 -2.203125 -1.265625 -3.59375q-1.1875 -1.390625 -3.125 -1.390625zm15.326233 14.46875q-1.953125 0 -3.546875 -0.953125q-1.578125 -0.96875 -2.453125 -2.6875q-0.875 -1.734375 -0.875 -3.875l0 -0.609375q0 -2.21875 0.859375 -3.984375q0.859375 -1.78125 2.390625 -2.796875q1.53125 -1.015625 3.3125 -1.015625q2.796875 0 4.4375 1.90625q1.640625 1.90625 1.640625 5.21875l0 0.953125l-10.953125 0l0 0.328125q0 2.609375 1.484375 4.34375q1.5 1.734375 3.78125 1.734375q1.359375 0 2.390625 -0.484375q1.046875 -0.5 1.90625 -1.59375l1.0625 0.8125q-1.875 2.703125 -5.4375 2.703125zm-0.3125 -14.46875q-1.90625 0 -3.21875 1.40625q-1.3125 1.40625 -1.609375 3.765625l9.21875 0l0 -0.1875q-0.078125 -2.203125 -1.265625 -3.59375q-1.1875 -1.390625 -3.125 -1.390625zm12.029358 -5.09375l0 3.921875l3.171875 0l0 1.390625l-3.171875 0l0 10.234375q0 1.28125 0.453125 1.90625q0.46875 0.625 1.546875 0.625q0.421875 0 1.375 -0.140625l0.0625 1.390625q-0.65625 0.234375 -1.8125 0.234375q-1.75 0 -2.546875 -1.015625q-0.78125 -1.015625 -0.78125 -2.984375l0 -10.25l-2.828125 0l0 -1.390625l2.828125 0l0 -3.921875l1.703125 0zm8.587463 19.28125l-1.703125 0l0 -15.359375l1.703125 0l0 15.359375zm-2.0 -19.796875q0 -0.484375 0.3125 -0.8125q0.3125 -0.34375 0.84375 -0.34375q0.546875 0 0.859375 0.34375q0.328125 0.328125 0.328125 0.8125q0 0.484375 -0.328125 0.8125q-0.3125 0.328125 -0.859375 0.328125q-0.53125 0 -0.84375 -0.328125q-0.3125 -0.328125 -0.3125 -0.8125zm8.232269 4.4375l0.0625 2.625q0.859375 -1.40625 2.15625 -2.15625q1.296875 -0.75 2.84375 -0.75q2.46875 0 3.671875 1.390625q1.21875 1.390625 1.234375 4.171875l0 10.078125l-1.6875 0l0 -10.09375q-0.015625 -2.046875 -0.875 -3.046875q-0.859375 -1.015625 -2.75 -1.015625q-1.578125 0 -2.796875 0.984375q-1.203125 0.984375 -1.78125 2.65625l0 10.515625l-1.6875 0l0 -15.359375l1.609375 0zm13.667633 7.546875q0 -3.609375 1.59375 -5.71875q1.59375 -2.109375 4.34375 -2.109375q3.125 0 4.765625 2.5l0.078125 -2.21875l1.59375 0l0 15.046875q0 2.96875 -1.65625 4.6875q-1.65625 1.734375 -4.5 1.734375q-1.609375 0 -3.0625 -0.71875q-1.453125 -0.703125 -2.296875 -1.90625l0.953125 -1.015625q1.8125 2.21875 4.296875 2.21875q2.125 0 3.3125 -1.265625q1.1875 -1.25 1.234375 -3.484375l0 -1.921875q-1.625 2.265625 -4.75 2.265625q-2.671875 0 -4.296875 -2.125q-1.609375 -2.125 -1.609375 -5.75l0 -0.21875zm1.71875 0.296875q0 2.9375 1.171875 4.640625q1.1875 1.6875 3.328125 1.6875q3.140625 0 4.4375 -2.8125l0 -7.140625q-0.59375 -1.46875 -1.71875 -2.234375q-1.109375 -0.78125 -2.6875 -0.78125q-2.140625 0 -3.34375 1.6875q-1.1875 1.671875 -1.1875 4.953125zm25.828186 3.984375l0.25 1.3125l0.34375 -1.390625l3.6875 -11.75l1.453125 0l3.640625 11.65625l0.40625 1.609375l0.328125 -1.484375l3.140625 -11.78125l1.765625 0l-4.46875 15.359375l-1.453125 0l-3.9375 -12.171875l-0.1875 -0.84375l-0.1875 0.859375l-3.875 12.15625l-1.453125 0l-4.453125 -15.359375l1.75 0l3.25 11.828125zm19.926025 -9.21875q0.828125 -1.390625 2.125 -2.140625q1.3125 -0.75 2.859375 -0.75q2.46875 0 3.671875 1.390625q1.21875 1.390625 1.234375 4.171875l0 10.078125l-1.6875 0l0 -10.09375q-0.015625 -2.046875 -0.875 -3.046875q-0.859375 -1.015625 -2.75 -1.015625q-1.578125 0 -2.796875 0.984375q-1.203125 0.984375 -1.78125 2.65625l0 10.515625l-1.6875 0l0 -21.796875l1.6875 0l0 9.046875zm20.200317 13.03125q-1.953125 0 -3.546875 -0.953125q-1.578125 -0.96875 -2.453125 -2.6875q-0.875 -1.734375 -0.875 -3.875l0 -0.609375q0 -2.21875 0.859375 -3.984375q0.859375 -1.78125 2.390625 -2.796875q1.53125 -1.015625 3.3125 -1.015625q2.796875 0 4.4375 1.90625q1.640625 1.90625 1.640625 5.21875l0 0.953125l-10.953125 0l0 0.328125q0 2.609375 1.484375 4.34375q1.5 1.734375 3.78125 1.734375q1.359375 0 2.390625 -0.484375q1.046875 -0.5 1.90625 -1.59375l1.0625 0.8125q-1.875 2.703125 -5.4375 2.703125zm-0.3125 -14.46875q-1.90625 0 -3.21875 1.40625q-1.3125 1.40625 -1.609375 3.765625l9.21875 0l0 -0.1875q-0.078125 -2.203125 -1.265625 -3.59375q-1.1875 -1.390625 -3.125 -1.390625zm16.482483 0.28125q-0.546875 -0.09375 -1.15625 -0.09375q-1.59375 0 -2.6875 0.890625q-1.09375 0.875 -1.5625 2.5625l0 10.546875l-1.6875 0l0 -15.359375l1.65625 0l0.03125 2.453125q1.34375 -2.734375 4.328125 -2.734375q0.703125 0 1.125 0.1875l-0.046875 1.546875zm8.35144 14.1875q-1.953125 0 -3.546875 -0.953125q-1.578125 -0.96875 -2.453125 -2.6875q-0.875 -1.734375 -0.875 -3.875l0 -0.609375q0 -2.21875 0.859375 -3.984375q0.859375 -1.78125 2.390625 -2.796875q1.53125 -1.015625 3.3125 -1.015625q2.796875 0 4.4375 1.90625q1.640625 1.90625 1.640625 5.21875l0 0.953125l-10.953125 0l0 0.328125q0 2.609375 1.484375 4.34375q1.5 1.734375 3.78125 1.734375q1.359375 0 2.390625 -0.484375q1.046875 -0.5 1.90625 -1.59375l1.0625 0.8125q-1.875 2.703125 -5.4375 2.703125zm-0.3125 -14.46875q-1.90625 0 -3.21875 1.40625q-1.3125 1.40625 -1.609375 3.765625l9.21875 0l0 -0.1875q-0.078125 -2.203125 -1.265625 -3.59375q-1.1875 -1.390625 -3.125 -1.390625zm26.143188 14.1875q-0.25 -0.71875 -0.328125 -2.140625q-0.890625 1.15625 -2.28125 1.796875q-1.375 0.625 -2.921875 0.625q-2.21875 0 -3.59375 -1.234375q-1.359375 -1.234375 -1.359375 -3.125q0 -2.234375 1.859375 -3.53125q1.875 -1.3125 5.203125 -1.3125l3.078125 0l0 -1.75q0 -1.640625 -1.015625 -2.578125q-1.015625 -0.953125 -2.953125 -0.953125q-1.78125 0 -2.953125 0.90625q-1.15625 0.90625 -1.15625 2.1875l-1.703125 -0.015625q0 -1.828125 1.703125 -3.171875q1.703125 -1.34375 4.1875 -1.34375q2.578125 0 4.0625 1.296875q1.484375 1.28125 1.515625 3.578125l0 7.265625q0 2.21875 0.46875 3.328125l0 0.171875l-1.8125 0zm-5.34375 -1.21875q1.703125 0 3.046875 -0.8125q1.34375 -0.828125 1.953125 -2.21875l0 -3.375l-3.03125 0q-2.546875 0.03125 -3.984375 0.9375q-1.421875 0.890625 -1.421875 2.46875q0 1.296875 0.953125 2.15625q0.953125 0.84375 2.484375 0.84375zm17.602905 -6.59375q0 -3.609375 1.59375 -5.71875q1.59375 -2.109375 4.375 -2.109375q3.09375 0 4.71875 2.375l0.078125 -2.09375l1.59375 0l0 21.265625l-1.703125 0l0 -7.8125q-1.671875 2.1875 -4.71875 2.1875q-2.703125 0 -4.328125 -2.125q-1.609375 -2.125 -1.609375 -5.75l0 -0.21875zm1.71875 0.296875q0 2.96875 1.1875 4.671875q1.203125 1.6875 3.34375 1.6875q3.046875 0 4.40625 -2.640625l0 -7.53125q-0.640625 -1.375 -1.765625 -2.109375q-1.125 -0.75 -2.609375 -0.75q-2.15625 0 -3.359375 1.703125q-1.203125 1.6875 -1.203125 4.96875zm25.0495 5.578125q-1.53125 2.21875 -4.90625 2.21875q-2.453125 0 -3.734375 -1.421875q-1.265625 -1.421875 -1.296875 -4.21875l0 -10.0l1.6875 0l0 9.78125q0 4.390625 3.546875 4.390625q3.6875 0 4.671875 -3.0625l0 -11.109375l1.703125 0l0 15.359375l-1.640625 0l-0.03125 -1.9375zm5.152008 -5.96875q0 -2.21875 0.859375 -3.984375q0.859375 -1.78125 2.421875 -2.765625q1.5625 -0.984375 3.546875 -0.984375q3.078125 0 4.96875 2.15625q1.90625 2.140625 1.90625 5.6875l0 0.359375q0 2.234375 -0.859375 4.015625q-0.859375 1.78125 -2.421875 2.75q-1.5625 0.953125 -3.5625 0.953125q-3.046875 0 -4.953125 -2.140625q-1.90625 -2.15625 -1.90625 -5.703125l0 -0.34375zm1.703125 0.46875q0 2.75 1.421875 4.515625q1.421875 1.765625 3.734375 1.765625q2.296875 0 3.71875 -1.765625q1.4375 -1.765625 1.4375 -4.65625l0 -0.328125q0 -1.75 -0.65625 -3.21875q-0.65625 -1.46875 -1.828125 -2.265625q-1.171875 -0.796875 -2.703125 -0.796875q-2.265625 0 -3.703125 1.78125q-1.421875 1.78125 -1.421875 4.65625l0 0.3125zm18.151703 -11.84375l0 3.921875l3.1718445 0l0 1.390625l-3.1718445 0l0 10.234375q0 1.28125 0.453125 1.90625q0.46875 0.625 1.546875 0.625q0.421875 0 1.3749695 -0.140625l0.0625 1.390625q-0.65625 0.234375 -1.8124695 0.234375q-1.75 0 -2.546875 -1.015625q-0.78125 -1.015625 -0.78125 -2.984375l0 -10.25l-2.828125 0l0 -1.390625l2.828125 0l0 -3.921875l1.703125 0zm12.634308 19.5625q-1.953125 0 -3.546875 -0.953125q-1.578125 -0.96875 -2.453125 -2.6875q-0.875 -1.734375 -0.875 -3.875l0 -0.609375q0 -2.21875 0.859375 -3.984375q0.859375 -1.78125 2.390625 -2.796875q1.53125 -1.015625 3.3125 -1.015625q2.796875 0 4.4375 1.90625q1.640625 1.90625 1.640625 5.21875l0 0.953125l-10.953125 0l0 0.328125q0 2.609375 1.484375 4.34375q1.5 1.734375 3.78125 1.734375q1.359375 0 2.390625 -0.484375q1.046875 -0.5 1.90625 -1.59375l1.0625 0.8125q-1.875 2.703125 -5.4375 2.703125zm-0.3125 -14.46875q-1.90625 0 -3.21875 1.40625q-1.3125 1.40625 -1.609375 3.765625l9.21875 0l0 -0.1875q-0.078125 -2.203125 -1.265625 -3.59375q-1.1875 -1.390625 -3.125 -1.390625zm20.127563 10.65625l0.25 1.3125l0.34375 -1.390625l3.6875 -11.75l1.453125 0l3.640625 11.65625l0.40625 1.609375l0.328125 -1.484375l3.140625 -11.78125l1.765625 0l-4.46875 15.359375l-1.453125 0l-3.9375 -12.171875l-0.1875 -0.84375l-0.1875 0.859375l-3.875 12.15625l-1.453125 0l-4.453125 -15.359375l1.75 0l3.25 11.828125zm20.12915 3.53125l-1.703125 0l0 -15.359375l1.703125 0l0 15.359375zm-2.0 -19.796875q0 -0.484375 0.3125 -0.8125q0.3125 -0.34375 0.84375 -0.34375q0.546875 0 0.859375 0.34375q0.328125 0.328125 0.328125 0.8125q0 0.484375 -0.328125 0.8125q-0.3125 0.328125 -0.859375 0.328125q-0.53125 0 -0.84375 -0.328125q-0.3125 -0.328125 -0.3125 -0.8125zm8.51355 19.796875l-1.703125 0l0 -21.796875l1.703125 0l0 21.796875zm6.513489 0l-1.703125 0l0 -21.796875l1.703125 0l0 21.796875zm24.049255 -7.515625q0 3.578125 -1.59375 5.6875q-1.59375 2.109375 -4.265625 2.109375q-3.21875 0 -4.859375 -2.375l-0.078125 2.09375l-1.578125 0l0 -21.796875l1.6875 0l0 8.671875q1.609375 -2.515625 4.796875 -2.515625q2.71875 0 4.296875 2.078125q1.59375 2.078125 1.59375 5.78125l0 0.265625zm-1.703125 -0.296875q0 -3.046875 -1.1875 -4.6875q-1.171875 -1.65625 -3.3125 -1.65625q-1.640625 0 -2.78125 0.796875q-1.125 0.796875 -1.703125 2.34375l0 6.921875q1.28125 2.90625 4.515625 2.90625q2.09375 0 3.28125 -1.65625q1.1875 -1.671875 1.1875 -4.96875zm11.387634 8.09375q-1.953125 0 -3.546875 -0.953125q-1.578125 -0.96875 -2.453125 -2.6875q-0.875 -1.734375 -0.875 -3.875l0 -0.609375q0 -2.21875 0.859375 -3.984375q0.859375 -1.78125 2.390625 -2.796875q1.53125 -1.015625 3.3125 -1.015625q2.796875 0 4.4375 1.90625q1.640625 1.90625 1.640625 5.21875l0 0.953125l-10.953125 0l0 0.328125q0 2.609375 1.484375 4.34375q1.5 1.734375 3.78125 1.734375q1.359375 0 2.390625 -0.484375q1.046875 -0.5 1.90625 -1.59375l1.0625 0.8125q-1.875 2.703125 -5.4375 2.703125zm-0.3125 -14.46875q-1.90625 0 -3.21875 1.40625q-1.3125 1.40625 -1.609375 3.765625l9.21875 0l0 -0.1875q-0.078125 -2.203125 -1.265625 -3.59375q-1.1875 -1.390625 -3.125 -1.390625zm28.799438 6.671875q0 3.578125 -1.59375 5.6875q-1.59375 2.109375 -4.25 2.109375q-3.15625 0 -4.828125 -2.21875l0 7.84375l-1.6875 0l0 -21.265625l1.578125 0l0.078125 2.171875q1.65625 -2.453125 4.8125 -2.453125q2.75 0 4.3125 2.09375q1.578125 2.078125 1.578125 5.78125l0 0.25zm-1.703125 -0.296875q0 -2.9375 -1.21875 -4.640625q-1.203125 -1.703125 -3.359375 -1.703125q-1.5625 0 -2.6875 0.75q-1.109375 0.75 -1.703125 2.1875l0 7.359375q0.609375 1.3125 1.734375 2.015625q1.140625 0.6875 2.6875 0.6875q2.140625 0 3.34375 -1.703125q1.203125 -1.703125 1.203125 -4.953125zm12.55957 -6.09375q-0.546875 -0.09375 -1.15625 -0.09375q-1.59375 0 -2.6875 0.890625q-1.09375 0.875 -1.5625 2.5625l0 10.546875l-1.6875 0l0 -15.359375l1.65625 0l0.03125 2.453125q1.34375 -2.734375 4.328125 -2.734375q0.703125 0 1.125 0.1875l-0.046875 1.546875zm1.4622192 6.0q0 -2.21875 0.859375 -3.984375q0.859375 -1.78125 2.421875 -2.765625q1.5625 -0.984375 3.546875 -0.984375q3.078125 0 4.96875 2.15625q1.90625 2.140625 1.90625 5.6875l0 0.359375q0 2.234375 -0.859375 4.015625q-0.859375 1.78125 -2.421875 2.75q-1.5625 0.953125 -3.5625 0.953125q-3.046875 0 -4.953125 -2.140625q-1.90625 -2.15625 -1.90625 -5.703125l0 -0.34375zm1.703125 0.46875q0 2.75 1.421875 4.515625q1.421875 1.765625 3.734375 1.765625q2.296875 0 3.71875 -1.765625q1.4375 -1.765625 1.4375 -4.65625l0 -0.328125q0 -1.75 -0.65625 -3.21875q-0.65625 -1.46875 -1.828125 -2.265625q-1.171875 -0.796875 -2.703125 -0.796875q-2.265625 0 -3.703125 1.78125q-1.421875 1.78125 -1.421875 4.65625l0 0.3125zm20.079468 5.09375l4.671875 -13.015625l1.734375 0l-5.734375 15.359375l-1.375 0l-5.75 -15.359375l1.734375 0l4.71875 13.015625zm11.087158 2.34375l-1.703125 0l0 -15.359375l1.703125 0l0 15.359375zm-2.0 -19.796875q0 -0.484375 0.3125 -0.8125q0.3125 -0.34375 0.84375 -0.34375q0.546875 0 0.859375 0.34375q0.328125 0.328125 0.328125 0.8125q0 0.484375 -0.328125 0.8125q-0.3125 0.328125 -0.859375 0.328125q-0.53125 0 -0.84375 -0.328125q-0.3125 -0.328125 -0.3125 -0.8125zm5.935425 11.984375q0 -3.578125 1.59375 -5.703125q1.59375 -2.125 4.34375 -2.125q3.109375 0 4.734375 2.453125l0 -8.609375l1.6875 0l0 21.796875l-1.59375 0l-0.0625 -2.046875q-1.640625 2.328125 -4.796875 2.328125q-2.65625 0 -4.28125 -2.125q-1.625 -2.140625 -1.625 -5.78125l0 -0.1875zm1.71875 0.296875q0 2.9375 1.171875 4.640625q1.1875 1.6875 3.328125 1.6875q3.140625 0 4.453125 -2.765625l0 -7.21875q-1.3125 -2.984375 -4.421875 -2.984375q-2.140625 0 -3.34375 1.6875q-1.1875 1.671875 -1.1875 4.953125zm21.055237 7.796875q-1.953125 0 -3.546875 -0.953125q-1.578125 -0.96875 -2.453125 -2.6875q-0.875 -1.734375 -0.875 -3.875l0 -0.609375q0 -2.21875 0.859375 -3.984375q0.859375 -1.78125 2.390625 -2.796875q1.53125 -1.015625 3.3125 -1.015625q2.796875 0 4.4375 1.90625q1.640625 1.90625 1.640625 5.21875l0 0.953125l-10.953125 0l0 0.328125q0 2.609375 1.484375 4.34375q1.5 1.734375 3.78125 1.734375q1.359375 0 2.390625 -0.484375q1.046875 -0.5 1.90625 -1.59375l1.0625 0.8125q-1.875 2.703125 -5.4375 2.703125zm-0.3125 -14.46875q-1.90625 0 -3.21875 1.40625q-1.3125 1.40625 -1.609375 3.765625l9.21875 0l0 -0.1875q-0.078125 -2.203125 -1.265625 -3.59375q-1.1875 -1.390625 -3.125 -1.390625zm8.701172 6.375q0 -3.578125 1.59375 -5.703125q1.59375 -2.125 4.34375 -2.125q3.109375 0 4.734375 2.453125l0 -8.609375l1.6875 0l0 21.796875l-1.59375 0l-0.0625 -2.046875q-1.640625 2.328125 -4.796875 2.328125q-2.65625 0 -4.28125 -2.125q-1.625 -2.140625 -1.625 -5.78125l0 -0.1875zm1.71875 0.296875q0 2.9375 1.171875 4.640625q1.1875 1.6875 3.328125 1.6875q3.140625 0 4.453125 -2.765625l0 -7.21875q-1.3125 -2.984375 -4.421875 -2.984375q-2.140625 0 -3.34375 1.6875q-1.1875 1.671875 -1.1875 4.953125zm14.961487 6.5q0 -0.5 0.3125 -0.84375q0.328125 -0.359375 0.890625 -0.359375q0.5625 0 0.890625 0.359375q0.328125 0.34375 0.328125 0.84375q0 0.484375 -0.328125 0.8125q-0.328125 0.3125 -0.890625 0.3125q-0.5625 0 -0.890625 -0.3125q-0.3125 -0.328125 -0.3125 -0.8125z" fill-rule="nonzero"/></g></svg>