<svg version="1.1" viewBox="0.0 0.0 960.0 540.0" fill="none" stroke="none" stroke-linecap="square" stroke-miterlimit="10" xmlns:xlink="http://www.w3.org/1999/xlink" xmlns="http://www.w3.org/2000/svg"><clipPath id="g1279ae57506_0_1019.0"><path d="m0 0l960.0 0l0 540.0l-960.0 0l0 -540.0z" clip-rule="nonzero"/></clipPath><g clip-path="url(#g1279ae57506_0_1019.0)"><path fill="#2a3990" d="m0 0l960.0 0l0 540.0l-960.0 0z" fill-rule="evenodd"/><path fill="#212d74" d="m853.41766 0.0016543308l106.58264 0l0 106.58267l-106.58264 0z" fill-rule="evenodd"/><path fill="#3949ab" d="m853.40295 106.58319l0 -106.58268l-106.58264 106.58268z" fill-rule="evenodd"/><path fill="#7890cd" d="m746.83344 0.011226509l0 106.58268l106.58264 -106.58268z" fill-rule="evenodd"/><path fill="#212d74" d="m746.83234 0.010170604l0 106.58268l-106.58264 -106.58268z" fill-rule="evenodd"/><path fill="#7890cd" d="m959.99884 106.60107l0 106.58268l-106.58264 -106.58268z" fill-rule="evenodd"/><path fill="#000000" fill-opacity="0.0" d="m0 123.94226l960.0 0l0 102.708664l-960.0 0z" fill-rule="evenodd"/><path fill="#ffffff" d="m50.772827 207.67355q-4.484375 0 -7.6875 -1.890625q-3.1875 -1.90625 -4.890625 -5.40625q-1.703125 -3.5 -1.703125 -8.34375q0 -3.625 0.96875 -6.484375q0.96875 -2.875 2.796875 -4.890625q1.84375 -2.015625 4.515625 -3.109375q2.6875 -1.109375 6.0 -1.109375q2.6875 0 5.09375 0.765625q2.421875 0.75 4.203125 2.21875q0.5625 0.4375 0.75 0.984375q0.203125 0.53125 0.046875 1.03125q-0.15625 0.5 -0.53125 0.828125q-0.359375 0.3125 -0.875 0.3125q-0.515625 0 -1.171875 -0.4375q-1.546875 -1.25 -3.40625 -1.84375q-1.859375 -0.609375 -4.015625 -0.609375q-3.40625 0 -5.78125 1.453125q-2.375 1.4375 -3.59375 4.203125q-1.203125 2.765625 -1.203125 6.6875q0 3.9375 1.203125 6.71875q1.21875 2.78125 3.59375 4.234375q2.375 1.453125 5.78125 1.453125q2.109375 0 4.015625 -0.625q1.90625 -0.640625 3.5 -1.890625q0.640625 -0.421875 1.15625 -0.40625q0.53125 0.015625 0.875 0.328125q0.34375 0.296875 0.484375 0.78125q0.15625 0.46875 0 0.984375q-0.140625 0.515625 -0.65625 0.90625q-1.8125 1.5625 -4.265625 2.359375q-2.4375 0.796875 -5.203125 0.796875zm22.631393 0q-3.0625 0 -5.3125 -1.328125q-2.234375 -1.34375 -3.46875 -3.78125q-1.234375 -2.453125 -1.234375 -5.78125q0 -2.5 0.6875 -4.5q0.703125 -2.015625 2.03125 -3.4375q1.34375 -1.421875 3.171875 -2.171875q1.84375 -0.765625 4.125 -0.765625q3.078125 0 5.3125 1.34375q2.25 1.328125 3.484375 3.78125q1.234375 2.4375 1.234375 5.75q0 2.515625 -0.703125 4.5q-0.6875 1.984375 -2.03125 3.4375q-1.328125 1.4375 -3.171875 2.203125q-1.828125 0.75 -4.125 0.75zm0 -2.8125q1.953125 0 3.421875 -0.9375q1.46875 -0.953125 2.265625 -2.765625q0.796875 -1.828125 0.796875 -4.375q0 -3.921875 -1.75 -6.0q-1.75 -2.078125 -4.734375 -2.078125q-1.984375 0 -3.4375 0.9375q-1.4375 0.921875 -2.234375 2.71875q-0.796875 1.796875 -0.796875 4.421875q0 3.890625 1.765625 5.984375q1.765625 2.09375 4.703125 2.09375zm17.027939 2.71875q-0.875 0 -1.3125 -0.46875q-0.421875 -0.46875 -0.421875 -1.34375l0 -18.0q0 -0.875 0.421875 -1.328125q0.4375 -0.453125 1.265625 -0.453125q0.8125 0 1.265625 0.453125q0.453125 0.453125 0.453125 1.328125l0 3.703125l-0.46875 -0.515625q0.90625 -2.5 2.953125 -3.765625q2.0625 -1.28125 4.734375 -1.28125q2.5 0 4.15625 0.90625q1.671875 0.90625 2.484375 2.75q0.828125 1.828125 0.828125 4.640625l0 11.5625q0 0.875 -0.453125 1.34375q-0.453125 0.46875 -1.265625 0.46875q-0.875 0 -1.328125 -0.46875q-0.453125 -0.46875 -0.453125 -1.34375l0 -11.359375q0 -2.9375 -1.140625 -4.296875q-1.140625 -1.359375 -3.65625 -1.359375q-2.890625 0 -4.59375 1.796875q-1.703125 1.796875 -1.703125 4.765625l0 10.453125q0 1.8125 -1.765625 1.8125zm24.530563 0q-0.875 0 -1.3125 -0.46875q-0.421875 -0.46875 -0.421875 -1.34375l0 -18.0q0 -0.875 0.421875 -1.328125q0.4375 -0.453125 1.265625 -0.453125q0.8125 0 1.265625 0.453125q0.453125 0.453125 0.453125 1.328125l0 3.703125l-0.46875 -0.515625q0.90625 -2.5 2.953125 -3.765625q2.0625 -1.28125 4.734375 -1.28125q2.5 0 4.15625 0.90625q1.671875 0.90625 2.484375 2.75q0.828125 1.828125 0.828125 4.640625l0 11.5625q0 0.875 -0.453125 1.34375q-0.453125 0.46875 -1.265625 0.46875q-0.875 0 -1.328125 -0.46875q-0.453125 -0.46875 -0.453125 -1.34375l0 -11.359375q0 -2.9375 -1.140625 -4.296875q-1.140625 -1.359375 -3.65625 -1.359375q-2.890625 0 -4.59375 1.796875q-1.703125 1.796875 -1.703125 4.765625l0 10.453125q0 1.8125 -1.765625 1.8125zm32.249313 0.09375q-3.3125 0 -5.71875 -1.3125q-2.390625 -1.328125 -3.71875 -3.734375q-1.3125 -2.421875 -1.3125 -5.796875q0 -3.28125 1.296875 -5.71875q1.296875 -2.4375 3.5625 -3.8125q2.265625 -1.390625 5.25 -1.390625q2.109375 0 3.796875 0.71875q1.6875 0.703125 2.875 2.046875q1.1875 1.328125 1.8125 3.234375q0.625 1.90625 0.625 4.28125q0 0.6875 -0.390625 1.015625q-0.390625 0.3125 -1.125 0.3125l-15.015625 0l0 -2.28125l14.203125 0l-0.6875 0.5625q0 -2.328125 -0.703125 -3.953125q-0.6875 -1.625 -2.0 -2.484375q-1.3125 -0.859375 -3.3125 -0.859375q-2.203125 0 -3.734375 1.015625q-1.53125 1.015625 -2.3125 2.8125q-0.765625 1.78125 -0.765625 4.15625l0 0.265625q0 3.96875 1.921875 6.046875q1.921875 2.0625 5.453125 2.0625q1.46875 0 2.921875 -0.390625q1.453125 -0.390625 2.828125 -1.296875q0.609375 -0.375 1.09375 -0.359375q0.5 0.015625 0.796875 0.296875q0.3125 0.28125 0.421875 0.703125q0.109375 0.40625 -0.09375 0.890625q-0.1875 0.46875 -0.75 0.8125q-1.421875 1.03125 -3.375 1.59375q-1.9375 0.5625 -3.84375 0.5625zm22.413315 0q-3.140625 0 -5.4375 -1.375q-2.28125 -1.390625 -3.515625 -3.875q-1.234375 -2.484375 -1.234375 -5.765625q0 -2.5 0.6875 -4.484375q0.703125 -2.0 2.03125 -3.390625q1.34375 -1.40625 3.21875 -2.140625q1.875 -0.734375 4.25 -0.734375q1.5625 0 3.25 0.484375q1.6875 0.46875 3.0625 1.625q0.4375 0.3125 0.5625 0.75q0.125 0.421875 0 0.828125q-0.125 0.40625 -0.4375 0.6875q-0.296875 0.28125 -0.75 0.328125q-0.453125 0.046875 -0.9375 -0.296875q-1.109375 -0.875 -2.28125 -1.21875q-1.171875 -0.34375 -2.25 -0.34375q-1.6875 0 -2.9375 0.546875q-1.25 0.53125 -2.109375 1.53125q-0.859375 0.984375 -1.3125 2.453125q-0.453125 1.46875 -0.453125 3.421875q0 3.75 1.765625 5.9375q1.765625 2.171875 5.046875 2.171875q1.078125 0 2.21875 -0.34375q1.15625 -0.34375 2.3125 -1.203125q0.484375 -0.34375 0.90625 -0.296875q0.4375 0.03125 0.734375 0.3125q0.3125 0.28125 0.421875 0.71875q0.109375 0.4375 -0.03125 0.84375q-0.125 0.40625 -0.5625 0.703125q-1.375 1.125 -3.015625 1.625q-1.640625 0.5 -3.203125 0.5zm19.527115 0q-2.46875 0 -4.125 -0.875q-1.65625 -0.890625 -2.484375 -2.59375q-0.8125 -1.71875 -0.8125 -4.171875l0 -11.015625l-2.90625 0q-0.734375 0 -1.125 -0.359375q-0.375 -0.375 -0.375 -1.03125q0 -0.640625 0.375 -0.984375q0.390625 -0.34375 1.125 -0.34375l2.90625 0l0 -4.96875q0 -0.859375 0.46875 -1.3125q0.46875 -0.453125 1.296875 -0.453125q0.8125 0 1.265625 0.453125q0.46875 0.453125 0.46875 1.3125l0 4.96875l5.4375 0q0.734375 0 1.125 0.34375q0.390625 0.34375 0.390625 0.984375q0 0.65625 -0.390625 1.03125q-0.390625 0.359375 -1.125 0.359375l-5.4375 0l0 10.671875q0 2.453125 1.03125 3.734375q1.03125 1.265625 3.359375 1.265625q0.828125 0 1.40625 -0.171875q0.59375 -0.171875 0.96875 -0.171875q0.390625 -0.046875 0.65625 0.265625q0.265625 0.296875 0.265625 1.03125q0 0.515625 -0.203125 0.953125q-0.1875 0.421875 -0.671875 0.59375q-0.515625 0.1875 -1.359375 0.328125q-0.84375 0.15625 -1.53125 0.15625zm8.687363 -0.171875q-0.875 0 -1.3125 -0.5q-0.421875 -0.5 -0.421875 -1.40625l0 -17.65625q0 -0.90625 0.421875 -1.375q0.4375 -0.484375 1.3125 -0.484375q0.8125 0 1.28125 0.484375q0.484375 0.46875 0.484375 1.375l0 17.65625q0 0.90625 -0.453125 1.40625q-0.453125 0.5 -1.3125 0.5zm0 -26.265625q-1.078125 0 -1.6875 -0.578125q-0.609375 -0.578125 -0.609375 -1.578125q0 -1.03125 0.609375 -1.5625q0.609375 -0.546875 1.6875 -0.546875q1.109375 0 1.6875 0.546875q0.59375 0.53125 0.59375 1.5625q0 1.0 -0.59375 1.578125q-0.578125 0.578125 -1.6875 0.578125zm10.019531 26.34375q-0.875 0 -1.3125 -0.46875q-0.421875 -0.46875 -0.421875 -1.34375l0 -18.0q0 -0.875 0.421875 -1.328125q0.4375 -0.453125 1.265625 -0.453125q0.8125 0 1.265625 0.453125q0.453125 0.453125 0.453125 1.328125l0 3.703125l-0.46875 -0.515625q0.90625 -2.5 2.953125 -3.765625q2.0625 -1.28125 4.734375 -1.28125q2.5 0 4.15625 0.90625q1.671875 0.90625 2.484375 2.75q0.828125 1.828125 0.828125 4.640625l0 11.5625q0 0.875 -0.453125 1.34375q-0.453125 0.46875 -1.265625 0.46875q-0.875 0 -1.328125 -0.46875q-0.453125 -0.46875 -0.453125 -1.34375l0 -11.359375q0 -2.9375 -1.140625 -4.296875q-1.140625 -1.359375 -3.65625 -1.359375q-2.890625 0 -4.59375 1.796875q-1.703125 1.796875 -1.703125 4.765625l0 10.453125q0 1.8125 -1.765625 1.8125zm32.07744 7.859375q-2.28125 0 -4.46875 -0.546875q-2.171875 -0.53125 -3.953125 -1.6875q-0.515625 -0.3125 -0.671875 -0.75q-0.140625 -0.421875 -0.0625 -0.828125q0.09375 -0.40625 0.390625 -0.734375q0.3125 -0.328125 0.71875 -0.421875q0.40625 -0.078125 0.84375 0.140625q1.890625 1.15625 3.609375 1.59375q1.734375 0.4375 3.421875 0.4375q3.078125 0 4.640625 -1.640625q1.578125 -1.640625 1.578125 -4.75l0 -4.890625l0.4375 0q-0.65625 2.515625 -2.75 3.984375q-2.09375 1.46875 -4.890625 1.46875q-2.890625 0 -5.015625 -1.3125q-2.109375 -1.328125 -3.265625 -3.703125q-1.140625 -2.375 -1.140625 -5.484375q0 -2.328125 0.640625 -4.25q0.65625 -1.921875 1.890625 -3.28125q1.234375 -1.359375 2.96875 -2.109375q1.75 -0.765625 3.921875 -0.765625q2.84375 0 4.90625 1.453125q2.078125 1.4375 2.6875 3.90625l-0.421875 0.515625l0 -4.015625q0 -0.875 0.453125 -1.328125q0.453125 -0.453125 1.265625 -0.453125q0.859375 0 1.296875 0.453125q0.4375 0.453125 0.4375 1.328125l0 18.0q0 4.796875 -2.40625 7.234375q-2.390625 2.4375 -7.0625 2.4375zm-0.515625 -11.484375q2.03125 0 3.5 -0.921875q1.46875 -0.9375 2.265625 -2.65625q0.796875 -1.734375 0.796875 -4.0625q0 -3.5 -1.765625 -5.546875q-1.765625 -2.0625 -4.796875 -2.0625q-1.984375 0 -3.453125 0.9375q-1.46875 0.921875 -2.265625 2.640625q-0.796875 1.703125 -0.796875 4.03125q0 3.5 1.765625 5.578125q1.765625 2.0625 4.75 2.0625zm38.012848 3.71875q-2.03125 0 -3.984375 -0.34375q-1.9375 -0.34375 -3.609375 -0.984375q-1.65625 -0.65625 -3.0 -1.65625q-0.515625 -0.390625 -0.71875 -0.875q-0.1875 -0.5 -0.078125 -1.0q0.109375 -0.5 0.4375 -0.84375q0.328125 -0.34375 0.796875 -0.390625q0.484375 -0.046875 1.03125 0.296875q1.953125 1.390625 4.15625 2.015625q2.203125 0.625 4.96875 0.625q3.875 0 5.75 -1.4375q1.890625 -1.453125 1.890625 -3.828125q0 -1.9375 -1.359375 -3.03125q-1.359375 -1.109375 -4.5625 -1.765625l-4.484375 -0.90625q-4.0625 -0.859375 -6.078125 -2.828125q-2.0 -1.96875 -2.0 -5.25q0 -2.03125 0.8125 -3.6875q0.828125 -1.671875 2.296875 -2.859375q1.46875 -1.1875 3.5 -1.828125q2.03125 -0.65625 4.484375 -0.65625q2.71875 0 5.078125 0.765625q2.359375 0.75 4.25 2.265625q0.484375 0.390625 0.65625 0.890625q0.171875 0.484375 0.03125 0.9375q-0.125 0.453125 -0.453125 0.765625q-0.3125 0.296875 -0.8125 0.34375q-0.5 0.046875 -1.109375 -0.34375q-1.71875 -1.296875 -3.578125 -1.875q-1.859375 -0.59375 -4.109375 -0.59375q-2.28125 0 -3.953125 0.703125q-1.65625 0.6875 -2.59375 2.0q-0.921875 1.3125 -0.921875 3.046875q0 2.078125 1.265625 3.28125q1.28125 1.203125 4.1875 1.765625l4.484375 0.953125q4.359375 0.90625 6.453125 2.75q2.09375 1.828125 2.09375 4.984375q0 1.890625 -0.78125 3.5q-0.765625 1.59375 -2.234375 2.734375q-1.46875 1.140625 -3.546875 1.75q-2.0625 0.609375 -4.65625 0.609375zm18.654114 -0.390625q-0.953125 0 -1.453125 -0.5q-0.5 -0.5 -0.5 -1.4375l0 -26.5625q0 -0.953125 0.5 -1.453125q0.5 -0.5 1.453125 -0.5l8.328125 0q7.390625 0 11.40625 3.890625q4.015625 3.890625 4.015625 11.3125q0 3.71875 -1.015625 6.546875q-1.015625 2.828125 -3.0 4.78125q-1.984375 1.9375 -4.84375 2.9375q-2.84375 0.984375 -6.5625 0.984375l-8.328125 0zm1.59375 -3.015625l6.484375 0q3.015625 0 5.234375 -0.78125q2.234375 -0.78125 3.71875 -2.28125q1.5 -1.515625 2.234375 -3.828125q0.734375 -2.3125 0.734375 -5.34375q0 -6.078125 -2.984375 -9.125q-2.984375 -3.046875 -8.9375 -3.046875l-6.484375 0l0 24.40625zm42.404602 3.40625q-4.875 0 -8.21875 -1.859375q-3.34375 -1.859375 -5.078125 -5.359375q-1.71875 -3.5 -1.71875 -8.375q0 -3.625 0.96875 -6.515625q0.96875 -2.890625 2.84375 -4.90625q1.875 -2.015625 4.578125 -3.109375q2.703125 -1.109375 6.109375 -1.109375q2.71875 0 5.265625 0.765625q2.5625 0.75 4.546875 2.390625q0.515625 0.390625 0.640625 0.875q0.125 0.46875 -0.03125 0.953125q-0.140625 0.46875 -0.46875 0.796875q-0.3125 0.3125 -0.8125 0.359375q-0.5 0.046875 -1.015625 -0.296875q-1.765625 -1.390625 -3.765625 -2.015625q-1.984375 -0.625 -4.390625 -0.625q-3.46875 0 -5.859375 1.46875q-2.390625 1.46875 -3.625 4.234375q-1.234375 2.765625 -1.234375 6.734375q0 6.046875 2.828125 9.25q2.828125 3.1875 8.53125 3.1875q2.078125 0 4.0625 -0.40625q1.984375 -0.40625 3.75 -1.140625l-0.765625 2.03125l0 -10.765625l-6.1875 0q-0.765625 0 -1.15625 -0.375q-0.390625 -0.390625 -0.390625 -1.046875q0 -0.6875 0.390625 -1.03125q0.390625 -0.34375 1.15625 -0.34375l7.734375 0q0.734375 0 1.125 0.390625q0.390625 0.375 0.390625 1.109375l0 11.28125q0 0.640625 -0.21875 1.078125q-0.21875 0.421875 -0.734375 0.640625q-1.8125 0.734375 -4.34375 1.234375q-2.53125 0.5 -4.90625 0.5zm24.057343 0q-1.9375 0 -3.90625 -0.46875q-1.96875 -0.484375 -3.640625 -1.65625q-0.4375 -0.296875 -0.609375 -0.703125q-0.171875 -0.40625 -0.109375 -0.8125q0.0625 -0.421875 0.34375 -0.71875q0.28125 -0.3125 0.6875 -0.375q0.421875 -0.0625 0.9375 0.203125q1.6875 1.03125 3.25 1.453125q1.578125 0.40625 3.140625 0.40625q2.453125 0 3.703125 -0.90625q1.265625 -0.921875 1.265625 -2.46875q0 -1.203125 -0.828125 -1.921875q-0.8125 -0.71875 -2.59375 -1.109375l-3.921875 -0.859375q-2.71875 -0.5625 -4.046875 -1.9375q-1.3125 -1.390625 -1.3125 -3.59375q0 -1.9375 1.015625 -3.34375q1.015625 -1.40625 2.875 -2.171875q1.859375 -0.78125 4.3125 -0.78125q1.90625 0 3.609375 0.5q1.703125 0.484375 3.09375 1.5625q0.421875 0.3125 0.578125 0.71875q0.15625 0.40625 0.046875 0.828125q-0.109375 0.40625 -0.421875 0.6875q-0.296875 0.28125 -0.734375 0.328125q-0.421875 0.03125 -0.890625 -0.265625q-1.296875 -0.859375 -2.640625 -1.265625q-1.34375 -0.421875 -2.640625 -0.421875q-2.40625 0 -3.671875 0.953125q-1.25 0.953125 -1.25 2.5q0 1.21875 0.78125 2.0q0.78125 0.765625 2.421875 1.109375l3.921875 0.828125q2.8125 0.609375 4.21875 1.921875q1.40625 1.3125 1.40625 3.5625q0 2.84375 -2.296875 4.53125q-2.28125 1.6875 -6.09375 1.6875zm33.25937 0q-2.46875 0 -4.125 -0.875q-1.65625 -0.890625 -2.484375 -2.59375q-0.8125 -1.71875 -0.8125 -4.171875l0 -11.015625l-2.90625 0q-0.734375 0 -1.125 -0.359375q-0.375 -0.375 -0.375 -1.03125q0 -0.640625 0.375 -0.984375q0.390625 -0.34375 1.125 -0.34375l2.90625 0l0 -4.96875q0 -0.859375 0.46875 -1.3125q0.46875 -0.453125 1.296875 -0.453125q0.8125 0 1.265625 0.453125q0.46875 0.453125 0.46875 1.3125l0 4.96875l5.4375 0q0.734375 0 1.125 0.34375q0.390625 0.34375 0.390625 0.984375q0 0.65625 -0.390625 1.03125q-0.390625 0.359375 -1.125 0.359375l-5.4375 0l0 10.671875q0 2.453125 1.03125 3.734375q1.03125 1.265625 3.359375 1.265625q0.828125 0 1.40625 -0.171875q0.59375 -0.171875 0.96875 -0.171875q0.390625 -0.046875 0.65625 0.265625q0.265625 0.296875 0.265625 1.03125q0 0.515625 -0.203125 0.953125q-0.1875 0.421875 -0.671875 0.59375q-0.515625 0.1875 -1.359375 0.328125q-0.84375 0.15625 -1.53125 0.15625zm15.196533 0q-3.0625 0 -5.3125 -1.328125q-2.234375 -1.34375 -3.46875 -3.78125q-1.234375 -2.453125 -1.234375 -5.78125q0 -2.5 0.6875 -4.5q0.703125 -2.015625 2.03125 -3.4375q1.34375 -1.421875 3.171875 -2.171875q1.84375 -0.765625 4.125 -0.765625q3.078125 0 5.3125 1.34375q2.25 1.328125 3.484375 3.78125q1.234375 2.4375 1.234375 5.75q0 2.515625 -0.703125 4.5q-0.6875 1.984375 -2.03125 3.4375q-1.328125 1.4375 -3.171875 2.203125q-1.828125 0.75 -4.125 0.75zm0 -2.8125q1.953125 0 3.421875 -0.9375q1.46875 -0.953125 2.265625 -2.765625q0.796875 -1.828125 0.796875 -4.375q0 -3.921875 -1.75 -6.0q-1.75 -2.078125 -4.734375 -2.078125q-1.984375 0 -3.4375 0.9375q-1.4375 0.921875 -2.234375 2.71875q-0.796875 1.796875 -0.796875 4.421875q0 3.890625 1.765625 5.984375q1.765625 2.09375 4.703125 2.09375zm40.0766 2.8125q-4.484375 0 -7.6875 -1.890625q-3.1875 -1.90625 -4.890625 -5.40625q-1.703125 -3.5 -1.703125 -8.34375q0 -3.625 0.96875 -6.484375q0.96875 -2.875 2.796875 -4.890625q1.84375 -2.015625 4.515625 -3.109375q2.6875 -1.109375 6.0 -1.109375q2.6875 0 5.09375 0.765625q2.421875 0.75 4.203125 2.21875q0.5625 0.4375 0.75 0.984375q0.203125 0.53125 0.046875 1.03125q-0.15625 0.5 -0.53125 0.828125q-0.359375 0.3125 -0.875 0.3125q-0.515625 0 -1.171875 -0.4375q-1.546875 -1.25 -3.40625 -1.84375q-1.859375 -0.609375 -4.015625 -0.609375q-3.40625 0 -5.78125 1.453125q-2.375 1.4375 -3.59375 4.203125q-1.203125 2.765625 -1.203125 6.6875q0 3.9375 1.203125 6.71875q1.21875 2.78125 3.59375 4.234375q2.375 1.453125 5.78125 1.453125q2.109375 0 4.015625 -0.625q1.90625 -0.640625 3.5 -1.890625q0.640625 -0.421875 1.15625 -0.40625q0.53125 0.015625 0.875 0.328125q0.34375 0.296875 0.484375 0.78125q0.15625 0.46875 0 0.984375q-0.140625 0.515625 -0.65625 0.90625q-1.8125 1.5625 -4.265625 2.359375q-2.4375 0.796875 -5.203125 0.796875zm25.234375 0q-2.03125 0 -3.984375 -0.34375q-1.9375 -0.34375 -3.609375 -0.984375q-1.65625 -0.65625 -3.0 -1.65625q-0.515625 -0.390625 -0.71875 -0.875q-0.1875 -0.5 -0.078125 -1.0q0.109375 -0.5 0.4375 -0.84375q0.328125 -0.34375 0.796875 -0.390625q0.484375 -0.046875 1.03125 0.296875q1.953125 1.390625 4.15625 2.015625q2.203125 0.625 4.96875 0.625q3.875 0 5.75 -1.4375q1.890625 -1.453125 1.890625 -3.828125q0 -1.9375 -1.359375 -3.03125q-1.359375 -1.109375 -4.5625 -1.765625l-4.484375 -0.90625q-4.0625 -0.859375 -6.078125 -2.828125q-2.0 -1.96875 -2.0 -5.25q0 -2.03125 0.8125 -3.6875q0.828125 -1.671875 2.296875 -2.859375q1.46875 -1.1875 3.5 -1.828125q2.03125 -0.65625 4.484375 -0.65625q2.71875 0 5.078125 0.765625q2.359375 0.75 4.25 2.265625q0.484375 0.390625 0.65625 0.890625q0.171875 0.484375 0.03125 0.9375q-0.125 0.453125 -0.453125 0.765625q-0.3125 0.296875 -0.8125 0.34375q-0.5 0.046875 -1.109375 -0.34375q-1.71875 -1.296875 -3.578125 -1.875q-1.859375 -0.59375 -4.109375 -0.59375q-2.28125 0 -3.953125 0.703125q-1.65625 0.6875 -2.59375 2.0q-0.921875 1.3125 -0.921875 3.046875q0 2.078125 1.265625 3.28125q1.28125 1.203125 4.1875 1.765625l4.484375 0.953125q4.359375 0.90625 6.453125 2.75q2.09375 1.828125 2.09375 4.984375q0 1.890625 -0.78125 3.5q-0.765625 1.59375 -2.234375 2.734375q-1.46875 1.140625 -3.546875 1.75q-2.0625 0.609375 -4.65625 0.609375zm18.482239 -0.09375q-0.859375 0 -1.328125 -0.484375q-0.453125 -0.5 -0.453125 -1.375l0 -27.078125q0 -0.90625 0.46875 -1.359375q0.484375 -0.453125 1.359375 -0.453125l10.234375 0q4.875 0 7.5 2.296875q2.640625 2.28125 2.640625 6.515625q0 2.6875 -1.1875 4.65625q-1.1875 1.953125 -3.484375 2.96875q-2.28125 1.015625 -5.46875 1.015625l0.421875 -0.5625l0.875 0q1.671875 0 2.921875 0.875q1.265625 0.859375 2.296875 2.75l4.140625 7.734375q0.34375 0.609375 0.328125 1.1875q-0.015625 0.578125 -0.40625 0.953125q-0.390625 0.359375 -1.125 0.359375q-0.734375 0 -1.21875 -0.34375q-0.46875 -0.34375 -0.8125 -0.984375l-4.703125 -8.734375q-1.0 -1.859375 -2.296875 -2.484375q-1.296875 -0.625 -3.40625 -0.625l-5.53125 0l0 11.3125q0 0.875 -0.4375 1.375q-0.421875 0.484375 -1.328125 0.484375zm1.765625 -15.96875l7.984375 0q3.546875 0 5.359375 -1.484375q1.8125 -1.5 1.8125 -4.484375q0 -2.890625 -1.8125 -4.375q-1.8125 -1.5 -5.359375 -1.5l-7.984375 0l0 11.84375zm37.753662 15.890625q-0.875 0 -1.3125 -0.5q-0.421875 -0.5 -0.421875 -1.40625l0 -17.65625q0 -0.90625 0.421875 -1.375q0.4375 -0.484375 1.3125 -0.484375q0.8125 0 1.28125 0.484375q0.484375 0.46875 0.484375 1.375l0 17.65625q0 0.90625 -0.453125 1.40625q-0.453125 0.5 -1.3125 0.5zm0 -26.265625q-1.078125 0 -1.6875 -0.578125q-0.609375 -0.578125 -0.609375 -1.578125q0 -1.03125 0.609375 -1.5625q0.609375 -0.546875 1.6875 -0.546875q1.109375 0 1.6875 0.546875q0.59375 0.53125 0.59375 1.5625q0 1.0 -0.59375 1.578125q-0.578125 0.578125 -1.6875 0.578125zm10.019531 26.34375q-0.875 0 -1.3125 -0.46875q-0.421875 -0.46875 -0.421875 -1.34375l0 -18.0q0 -0.875 0.421875 -1.328125q0.4375 -0.453125 1.265625 -0.453125q0.8125 0 1.265625 0.453125q0.453125 0.453125 0.453125 1.328125l0 3.703125l-0.46875 -0.515625q0.90625 -2.5 2.953125 -3.765625q2.0625 -1.28125 4.734375 -1.28125q2.5 0 4.15625 0.90625q1.671875 0.90625 2.484375 2.75q0.828125 1.828125 0.828125 4.640625l0 11.5625q0 0.875 -0.453125 1.34375q-0.453125 0.46875 -1.265625 0.46875q-0.875 0 -1.328125 -0.46875q-0.453125 -0.46875 -0.453125 -1.34375l0 -11.359375q0 -2.9375 -1.140625 -4.296875q-1.140625 -1.359375 -3.65625 -1.359375q-2.890625 0 -4.59375 1.796875q-1.703125 1.796875 -1.703125 4.765625l0 10.453125q0 1.8125 -1.765625 1.8125zm24.530579 -0.078125q-0.875 0 -1.3125 -0.5q-0.421875 -0.5 -0.421875 -1.40625l0 -17.65625q0 -0.90625 0.421875 -1.375q0.4375 -0.484375 1.3125 -0.484375q0.8125 0 1.28125 0.484375q0.484375 0.46875 0.484375 1.375l0 17.65625q0 0.90625 -0.453125 1.40625q-0.453125 0.5 -1.3125 0.5zm0 -26.265625q-1.078125 0 -1.6875 -0.578125q-0.609375 -0.578125 -0.609375 -1.578125q0 -1.03125 0.609375 -1.5625q0.609375 -0.546875 1.6875 -0.546875q1.109375 0 1.6875 0.546875q0.59375 0.53125 0.59375 1.5625q0 1.0 -0.59375 1.578125q-0.578125 0.578125 -1.6875 0.578125zm16.707031 26.4375q-2.46875 0 -4.125 -0.875q-1.65625 -0.890625 -2.484375 -2.59375q-0.8125 -1.71875 -0.8125 -4.171875l0 -11.015625l-2.90625 0q-0.734375 0 -1.125 -0.359375q-0.375 -0.375 -0.375 -1.03125q0 -0.640625 0.375 -0.984375q0.390625 -0.34375 1.125 -0.34375l2.90625 0l0 -4.96875q0 -0.859375 0.46875 -1.3125q0.46875 -0.453125 1.296875 -0.453125q0.8125 0 1.265625 0.453125q0.46875 0.453125 0.46875 1.3125l0 4.96875l5.4375 0q0.734375 0 1.125 0.34375q0.390625 0.34375 0.390625 0.984375q0 0.65625 -0.390625 1.03125q-0.390625 0.359375 -1.125 0.359375l-5.4375 0l0 10.671875q0 2.453125 1.03125 3.734375q1.03125 1.265625 3.359375 1.265625q0.828125 0 1.40625 -0.171875q0.59375 -0.171875 0.96875 -0.171875q0.390625 -0.046875 0.65625 0.265625q0.265625 0.296875 0.265625 1.03125q0 0.515625 -0.203125 0.953125q-0.1875 0.421875 -0.671875 0.59375q-0.515625 0.1875 -1.359375 0.328125q-0.84375 0.15625 -1.53125 0.15625zm8.687378 -0.171875q-0.875 0 -1.3125 -0.5q-0.421875 -0.5 -0.421875 -1.40625l0 -17.65625q0 -0.90625 0.421875 -1.375q0.4375 -0.484375 1.3125 -0.484375q0.8125 0 1.28125 0.484375q0.484375 0.46875 0.484375 1.375l0 17.65625q0 0.90625 -0.453125 1.40625q-0.453125 0.5 -1.3125 0.5zm0 -26.265625q-1.078125 0 -1.6875 -0.578125q-0.609375 -0.578125 -0.609375 -1.578125q0 -1.03125 0.609375 -1.5625q0.609375 -0.546875 1.6875 -0.546875q1.109375 0 1.6875 0.546875q0.59375 0.53125 0.59375 1.5625q0 1.0 -0.59375 1.578125q-0.578125 0.578125 -1.6875 0.578125zm14.894531 26.4375q-2.15625 0 -3.875 -0.84375q-1.703125 -0.84375 -2.703125 -2.3125q-0.984375 -1.46875 -0.984375 -3.28125q0 -2.328125 1.1875 -3.671875q1.1875 -1.34375 3.921875 -1.890625q2.75 -0.5625 7.5 -0.5625l1.953125 0l0 2.28125l-1.90625 0q-3.5 0 -5.515625 0.328125q-2.0 0.328125 -2.796875 1.109375q-0.796875 0.765625 -0.796875 2.1875q0 1.78125 1.21875 2.90625q1.234375 1.109375 3.359375 1.109375q1.71875 0 3.03125 -0.8125q1.328125 -0.828125 2.078125 -2.25q0.765625 -1.421875 0.765625 -3.28125l0 -4.921875q0 -2.6875 -1.078125 -3.875q-1.078125 -1.1875 -3.546875 -1.1875q-1.515625 0 -3.03125 0.390625q-1.5 0.390625 -3.1875 1.265625q-0.609375 0.296875 -1.046875 0.1875q-0.421875 -0.109375 -0.6875 -0.453125q-0.25 -0.34375 -0.296875 -0.796875q-0.046875 -0.453125 0.1875 -0.890625q0.25 -0.4375 0.765625 -0.6875q1.90625 -0.953125 3.75 -1.375q1.859375 -0.4375 3.546875 -0.4375q2.71875 0 4.484375 0.890625q1.78125 0.875 2.640625 2.671875q0.859375 1.796875 0.859375 4.59375l0 11.703125q0 0.875 -0.40625 1.34375q-0.40625 0.46875 -1.1875 0.46875q-0.8125 0 -1.25 -0.46875q-0.4375 -0.46875 -0.4375 -1.34375l0 -3.359375l0.390625 0q-0.34375 1.640625 -1.3125 2.8125q-0.96875 1.15625 -2.40625 1.8125q-1.421875 0.640625 -3.1875 0.640625zm24.701965 0q-2.46875 0 -4.125 -0.875q-1.65625 -0.890625 -2.484375 -2.59375q-0.8125 -1.71875 -0.8125 -4.171875l0 -11.015625l-2.90625 0q-0.734375 0 -1.125 -0.359375q-0.375 -0.375 -0.375 -1.03125q0 -0.640625 0.375 -0.984375q0.390625 -0.34375 1.125 -0.34375l2.90625 0l0 -4.96875q0 -0.859375 0.46875 -1.3125q0.46875 -0.453125 1.296875 -0.453125q0.8125 0 1.265625 0.453125q0.46875 0.453125 0.46875 1.3125l0 4.96875l5.4375 0q0.734375 0 1.125 0.34375q0.390625 0.34375 0.390625 0.984375q0 0.65625 -0.390625 1.03125q-0.390625 0.359375 -1.125 0.359375l-5.4375 0l0 10.671875q0 2.453125 1.03125 3.734375q1.03125 1.265625 3.359375 1.265625q0.828125 0 1.40625 -0.171875q0.59375 -0.171875 0.96875 -0.171875q0.390625 -0.046875 0.65625 0.265625q0.265625 0.296875 0.265625 1.03125q0 0.515625 -0.203125 0.953125q-0.1875 0.421875 -0.671875 0.59375q-0.515625 0.1875 -1.359375 0.328125q-0.84375 0.15625 -1.53125 0.15625zm8.687378 -0.171875q-0.875 0 -1.3125 -0.5q-0.421875 -0.5 -0.421875 -1.40625l0 -17.65625q0 -0.90625 0.421875 -1.375q0.4375 -0.484375 1.3125 -0.484375q0.8125 0 1.28125 0.484375q0.484375 0.46875 0.484375 1.375l0 17.65625q0 0.90625 -0.453125 1.40625q-0.453125 0.5 -1.3125 0.5zm0 -26.265625q-1.078125 0 -1.6875 -0.578125q-0.609375 -0.578125 -0.609375 -1.578125q0 -1.03125 0.609375 -1.5625q0.609375 -0.546875 1.6875 -0.546875q1.109375 0 1.6875 0.546875q0.59375 0.53125 0.59375 1.5625q0 1.0 -0.59375 1.578125q-0.578125 0.578125 -1.6875 0.578125zm16.097656 26.34375q-0.734375 0 -1.296875 -0.40625q-0.5625 -0.40625 -0.9375 -1.265625l-7.484375 -17.453125q-0.296875 -0.65625 -0.21875 -1.203125q0.09375 -0.5625 0.515625 -0.90625q0.4375 -0.359375 1.21875 -0.359375q0.6875 0 1.078125 0.3125q0.390625 0.296875 0.703125 1.078125l7.078125 17.3125l-1.171875 0l7.21875 -17.3125q0.296875 -0.78125 0.6875 -1.078125q0.390625 -0.3125 1.125 -0.3125q0.6875 0 1.046875 0.359375q0.375 0.34375 0.4375 0.890625q0.0625 0.53125 -0.1875 1.171875l-7.5625 17.5q-0.296875 0.859375 -0.890625 1.265625q-0.578125 0.40625 -1.359375 0.40625zm23.579834 0.09375q-3.3125 0 -5.71875 -1.3125q-2.390625 -1.328125 -3.71875 -3.734375q-1.3125 -2.421875 -1.3125 -5.796875q0 -3.28125 1.296875 -5.71875q1.296875 -2.4375 3.5625 -3.8125q2.265625 -1.390625 5.25 -1.390625q2.109375 0 3.796875 0.71875q1.6875 0.703125 2.875 2.046875q1.1875 1.328125 1.8125 3.234375q0.625 1.90625 0.625 4.28125q0 0.6875 -0.390625 1.015625q-0.390625 0.3125 -1.125 0.3125l-15.015625 0l0 -2.28125l14.203125 0l-0.6875 0.5625q0 -2.328125 -0.703125 -3.953125q-0.6875 -1.625 -2.0 -2.484375q-1.3125 -0.859375 -3.3125 -0.859375q-2.203125 0 -3.734375 1.015625q-1.53125 1.015625 -2.3125 2.8125q-0.765625 1.78125 -0.765625 4.15625l0 0.265625q0 3.96875 1.921875 6.046875q1.921875 2.0625 5.453125 2.0625q1.46875 0 2.921875 -0.390625q1.453125 -0.390625 2.828125 -1.296875q0.609375 -0.375 1.09375 -0.359375q0.5 0.015625 0.796875 0.296875q0.3125 0.28125 0.421875 0.703125q0.109375 0.40625 -0.09375 0.890625q-0.1875 0.46875 -0.75 0.8125q-1.421875 1.03125 -3.375 1.59375q-1.9375 0.5625 -3.84375 0.5625zm20.60083 0q-1.9375 0 -3.90625 -0.46875q-1.96875 -0.484375 -3.640625 -1.65625q-0.4375 -0.296875 -0.609375 -0.703125q-0.171875 -0.40625 -0.109375 -0.8125q0.0625 -0.421875 0.34375 -0.71875q0.28125 -0.3125 0.6875 -0.375q0.421875 -0.0625 0.9375 0.203125q1.6875 1.03125 3.25 1.453125q1.578125 0.40625 3.140625 0.40625q2.453125 0 3.703125 -0.90625q1.265625 -0.921875 1.265625 -2.46875q0 -1.203125 -0.828125 -1.921875q-0.8125 -0.71875 -2.59375 -1.109375l-3.921875 -0.859375q-2.71875 -0.5625 -4.046875 -1.9375q-1.3125 -1.390625 -1.3125 -3.59375q0 -1.9375 1.015625 -3.34375q1.015625 -1.40625 2.875 -2.171875q1.859375 -0.78125 4.3125 -0.78125q1.90625 0 3.609375 0.5q1.703125 0.484375 3.09375 1.5625q0.421875 0.3125 0.578125 0.71875q0.15625 0.40625 0.046875 0.828125q-0.109375 0.40625 -0.421875 0.6875q-0.296875 0.28125 -0.734375 0.328125q-0.421875 0.03125 -0.890625 -0.265625q-1.296875 -0.859375 -2.640625 -1.265625q-1.34375 -0.421875 -2.640625 -0.421875q-2.40625 0 -3.671875 0.953125q-1.25 0.953125 -1.25 2.5q0 1.21875 0.78125 2.0q0.78125 0.765625 2.421875 1.109375l3.921875 0.828125q2.8125 0.609375 4.21875 1.921875q1.40625 1.3125 1.40625 3.5625q0 2.84375 -2.296875 4.53125q-2.28125 1.6875 -6.09375 1.6875zm35.0719 -0.09375q-0.78125 0 -1.25 -0.40625q-0.46875 -0.40625 -0.78125 -1.234375l-9.546875 -27.25q-0.296875 -0.90625 0.15625 -1.53125q0.453125 -0.625 1.453125 -0.625q0.734375 0 1.15625 0.375q0.4375 0.359375 0.734375 1.140625l8.9375 26.21875l-1.5 0l9.109375 -26.09375q0.296875 -0.8125 0.734375 -1.21875q0.4375 -0.421875 1.15625 -0.421875q0.703125 0 1.109375 0.421875q0.40625 0.40625 0.71875 1.21875l8.96875 26.09375l-1.328125 0l9.015625 -26.21875q0.21875 -0.734375 0.671875 -1.125q0.453125 -0.390625 1.1875 -0.390625q0.90625 0 1.34375 0.609375q0.4375 0.59375 0.09375 1.546875l-9.59375 27.25q-0.296875 0.828125 -0.75 1.234375q-0.453125 0.40625 -1.28125 0.40625q-0.78125 0 -1.234375 -0.40625q-0.453125 -0.40625 -0.796875 -1.234375l-8.671875 -25.0l0.9375 0l-8.765625 25.0q-0.296875 0.828125 -0.734375 1.234375q-0.421875 0.40625 -1.25 0.40625zm43.485107 0.09375q-3.0625 0 -5.3125 -1.328125q-2.234375 -1.34375 -3.46875 -3.78125q-1.234375 -2.453125 -1.234375 -5.78125q0 -2.5 0.6875 -4.5q0.703125 -2.015625 2.03125 -3.4375q1.34375 -1.421875 3.171875 -2.171875q1.84375 -0.765625 4.125 -0.765625q3.078125 0 5.3125 1.34375q2.25 1.328125 3.484375 3.78125q1.234375 2.4375 1.234375 5.75q0 2.515625 -0.703125 4.5q-0.6875 1.984375 -2.03125 3.4375q-1.328125 1.4375 -3.171875 2.203125q-1.828125 0.75 -4.125 0.75zm0 -2.8125q1.953125 0 3.421875 -0.9375q1.46875 -0.953125 2.265625 -2.765625q0.796875 -1.828125 0.796875 -4.375q0 -3.921875 -1.75 -6.0q-1.75 -2.078125 -4.734375 -2.078125q-1.984375 0 -3.4375 0.9375q-1.4375 0.921875 -2.234375 2.71875q-0.796875 1.796875 -0.796875 4.421875q0 3.890625 1.765625 5.984375q1.765625 2.09375 4.703125 2.09375zm17.059204 2.71875q-0.859375 0 -1.3125 -0.46875q-0.453125 -0.46875 -0.453125 -1.34375l0 -18.0q0 -0.875 0.421875 -1.328125q0.4375 -0.453125 1.265625 -0.453125q0.8125 0 1.265625 0.453125q0.453125 0.453125 0.453125 1.328125l0 3.5l-0.421875 0q0.6875 -2.5625 2.625 -3.9375q1.953125 -1.375 4.796875 -1.46875q0.65625 -0.046875 1.03125 0.28125q0.390625 0.328125 0.4375 1.109375q0.046875 0.71875 -0.34375 1.15625q-0.390625 0.4375 -1.203125 0.515625l-0.703125 0.09375q-2.9375 0.25 -4.515625 1.875q-1.5625 1.625 -1.5625 4.421875l0 10.453125q0 0.875 -0.453125 1.34375q-0.453125 0.46875 -1.328125 0.46875zm15.429932 0q-0.875 0 -1.3125 -0.46875q-0.421875 -0.46875 -0.421875 -1.34375l0 -27.46875q0 -0.859375 0.421875 -1.3125q0.4375 -0.453125 1.3125 -0.453125q0.8125 0 1.28125 0.453125q0.484375 0.453125 0.484375 1.3125l0 17.328125l0.078125 0l8.859375 -8.46875q0.609375 -0.5625 1.0625 -0.859375q0.453125 -0.3125 1.234375 -0.3125q0.6875 0 1.078125 0.375q0.390625 0.359375 0.359375 0.90625q-0.015625 0.53125 -0.53125 1.140625l-9.421875 8.9375l0 -1.890625l10.234375 9.625q0.609375 0.609375 0.609375 1.171875q0 0.5625 -0.421875 0.953125q-0.40625 0.375 -1.046875 0.375q-0.78125 0 -1.265625 -0.3125q-0.46875 -0.328125 -1.15625 -0.984375l-9.59375 -8.84375l-0.078125 0l0 8.328125q0 1.8125 -1.765625 1.8125zm26.548767 0.09375q-1.9375 0 -3.90625 -0.46875q-1.96875 -0.484375 -3.640625 -1.65625q-0.4375 -0.296875 -0.609375 -0.703125q-0.171875 -0.40625 -0.109375 -0.8125q0.0625 -0.421875 0.34375 -0.71875q0.28125 -0.3125 0.6875 -0.375q0.421875 -0.0625 0.9375 0.203125q1.6875 1.03125 3.25 1.453125q1.578125 0.40625 3.140625 0.40625q2.453125 0 3.703125 -0.90625q1.265625 -0.921875 1.265625 -2.46875q0 -1.203125 -0.828125 -1.921875q-0.8125 -0.71875 -2.59375 -1.109375l-3.921875 -0.859375q-2.71875 -0.5625 -4.046875 -1.9375q-1.3125 -1.390625 -1.3125 -3.59375q0 -1.9375 1.015625 -3.34375q1.015625 -1.40625 2.875 -2.171875q1.859375 -0.78125 4.3125 -0.78125q1.90625 0 3.609375 0.5q1.703125 0.484375 3.09375 1.5625q0.421875 0.3125 0.578125 0.71875q0.15625 0.40625 0.046875 0.828125q-0.109375 0.40625 -0.421875 0.6875q-0.296875 0.28125 -0.734375 0.328125q-0.421875 0.03125 -0.890625 -0.265625q-1.296875 -0.859375 -2.640625 -1.265625q-1.34375 -0.421875 -2.640625 -0.421875q-2.40625 0 -3.671875 0.953125q-1.25 0.953125 -1.25 2.5q0 1.21875 0.78125 2.0q0.78125 0.765625 2.421875 1.109375l3.921875 0.828125q2.8125 0.609375 4.21875 1.921875q1.40625 1.3125 1.40625 3.5625q0 2.84375 -2.296875 4.53125q-2.28125 1.6875 -6.09375 1.6875zm15.429504 -0.09375q-0.875 0 -1.3125 -0.46875q-0.421875 -0.46875 -0.421875 -1.34375l0 -27.46875q0 -0.859375 0.421875 -1.3125q0.4375 -0.453125 1.3125 -0.453125q0.8125 0 1.28125 0.453125q0.484375 0.453125 0.484375 1.3125l0 12.65625l-0.5625 0q0.90625 -2.5 2.953125 -3.765625q2.0625 -1.28125 4.734375 -1.28125q2.5 0 4.15625 0.90625q1.671875 0.90625 2.484375 2.75q0.828125 1.828125 0.828125 4.640625l0 11.5625q0 0.875 -0.453125 1.34375q-0.453125 0.46875 -1.265625 0.46875q-0.875 0 -1.328125 -0.46875q-0.453125 -0.46875 -0.453125 -1.34375l0 -11.359375q0 -2.9375 -1.140625 -4.296875q-1.140625 -1.359375 -3.65625 -1.359375q-2.890625 0 -4.59375 1.796875q-1.703125 1.796875 -1.703125 4.765625l0 10.453125q0 1.8125 -1.765625 1.8125zm31.514954 0.09375q-3.0625 0 -5.3125 -1.328125q-2.234375 -1.34375 -3.46875 -3.78125q-1.234375 -2.453125 -1.234375 -5.78125q0 -2.5 0.6875 -4.5q0.703125 -2.015625 2.03125 -3.4375q1.34375 -1.421875 3.171875 -2.171875q1.84375 -0.765625 4.125 -0.765625q3.078125 0 5.3125 1.34375q2.25 1.328125 3.484375 3.78125q1.234375 2.4375 1.234375 5.75q0 2.515625 -0.703125 4.5q-0.6875 1.984375 -2.03125 3.4375q-1.328125 1.4375 -3.171875 2.203125q-1.828125 0.75 -4.125 0.75zm0 -2.8125q1.953125 0 3.421875 -0.9375q1.46875 -0.953125 2.265625 -2.765625q0.796875 -1.828125 0.796875 -4.375q0 -3.921875 -1.75 -6.0q-1.75 -2.078125 -4.734375 -2.078125q-1.984375 0 -3.4375 0.9375q-1.4375 0.921875 -2.234375 2.71875q-0.796875 1.796875 -0.796875 4.421875q0 3.890625 1.765625 5.984375q1.765625 2.09375 4.703125 2.09375zm17.027954 10.5q-0.875 0 -1.3125 -0.453125q-0.421875 -0.453125 -0.421875 -1.3125l0 -25.828125q0 -0.875 0.421875 -1.328125q0.4375 -0.453125 1.265625 -0.453125q0.859375 0 1.3125 0.453125q0.453125 0.453125 0.453125 1.328125l0 4.09375l-0.46875 -0.59375q0.6875 -2.46875 2.734375 -3.90625q2.0625 -1.453125 4.90625 -1.453125q2.8125 0 4.90625 1.3125q2.09375 1.3125 3.234375 3.765625q1.140625 2.4375 1.140625 5.796875q0 3.328125 -1.140625 5.78125q-1.140625 2.4375 -3.21875 3.78125q-2.078125 1.328125 -4.921875 1.328125q-2.84375 0 -4.875 -1.4375q-2.03125 -1.453125 -2.765625 -3.875l0.515625 0l0 11.234375q0 0.859375 -0.484375 1.3125q-0.46875 0.453125 -1.28125 0.453125zm8.15625 -10.5q1.984375 0 3.421875 -0.9375q1.453125 -0.953125 2.25 -2.765625q0.8125 -1.828125 0.8125 -4.375q0 -3.921875 -1.75 -6.0q-1.75 -2.078125 -4.734375 -2.078125q-1.9375 0 -3.40625 0.9375q-1.46875 0.921875 -2.28125 2.71875q-0.796875 1.796875 -0.796875 4.421875q0 3.890625 1.765625 5.984375q1.78125 2.09375 4.71875 2.09375z" fill-rule="nonzero"/><path fill="#000000" fill-opacity="0.0" d="m189.3412 248.99213l577.2284 0l0 42.015747l-577.2284 0z" fill-rule="evenodd"/><path fill="#ffffff" d="m225.13152 284.42737l10.203125 0l0 1.46875l-11.96875 0l0 -20.65625l1.765625 0l0 19.1875zm12.217987 -6.4375q0 -2.21875 0.859375 -3.984375q0.859375 -1.78125 2.421875 -2.765625q1.5625 -0.984375 3.546875 -0.984375q3.078125 0 4.96875 2.15625q1.90625 2.140625 1.90625 5.6875l0 0.359375q0 2.234375 -0.859375 4.015625q-0.859375 1.78125 -2.421875 2.75q-1.5625 0.953125 -3.5625 0.953125q-3.046875 0 -4.953125 -2.140625q-1.90625 -2.15625 -1.90625 -5.703125l0 -0.34375zm1.703125 0.46875q0 2.75 1.421875 4.515625q1.421875 1.765625 3.734375 1.765625q2.296875 0 3.71875 -1.765625q1.4375 -1.765625 1.4375 -4.65625l0 -0.328125q0 -1.75 -0.65625 -3.21875q-0.65625 -1.46875 -1.828125 -2.265625q-1.171875 -0.796875 -2.703125 -0.796875q-2.265625 0 -3.703125 1.78125q-1.421875 1.78125 -1.421875 4.65625l0 0.3125zm22.604843 -6.46875q-0.546875 -0.09375 -1.15625 -0.09375q-1.59375 0 -2.6875 0.890625q-1.09375 0.875 -1.5625 2.5625l0 10.546875l-1.6875153 0l0 -15.359375l1.6562653 0l0.03125 2.453125q1.34375 -2.734375 4.328125 -2.734375q0.703125 0 1.125 0.1875l-0.046875 1.546875zm8.35144 14.1875q-1.953125 0 -3.546875 -0.953125q-1.578125 -0.96875 -2.453125 -2.6875q-0.875 -1.734375 -0.875 -3.875l0 -0.609375q0 -2.21875 0.859375 -3.984375q0.859375 -1.78125 2.390625 -2.796875q1.53125 -1.015625 3.3125 -1.015625q2.796875 0 4.4375 1.90625q1.640625 1.90625 1.640625 5.21875l0 0.953125l-10.953125 0l0 0.328125q0 2.609375 1.484375 4.34375q1.5 1.734375 3.78125 1.734375q1.359375 0 2.390625 -0.484375q1.046875 -0.5 1.90625 -1.59375l1.0625 0.8125q-1.875 2.703125 -5.4375 2.703125zm-0.3125 -14.46875q-1.90625 0 -3.21875 1.40625q-1.3125 1.40625 -1.609375 3.765625l9.21875 0l0 -0.1875q-0.078125 -2.203125 -1.265625 -3.59375q-1.1875 -1.390625 -3.125 -1.390625zm10.935608 -1.171875l0.046875 2.5q0.859375 -1.390625 2.125 -2.078125q1.28125 -0.703125 2.84375 -0.703125q3.640625 0 4.609375 2.984375q0.828125 -1.4375 2.203125 -2.203125q1.375 -0.78125 3.03125 -0.78125q4.953125 0 5.046875 5.390625l0 10.25l-1.703125 0l0 -10.125q-0.015625 -2.046875 -0.890625 -3.03125q-0.875 -1.0 -2.84375 -1.0q-1.828125 0.015625 -3.09375 1.171875q-1.265625 1.15625 -1.40625 2.828125l0 10.15625l-1.703125 0l0 -10.25q-0.015625 -1.96875 -0.9375 -2.9375q-0.90625 -0.96875 -2.8125 -0.96875q-1.59375 0 -2.75 0.921875q-1.140625 0.90625 -1.703125 2.703125l0 10.53125l-1.703125 0l0 -15.359375l1.640625 0zm33.16678 15.359375l-1.703125 0l0 -15.359375l1.703125 0l0 15.359375zm-2.0 -19.796875q0 -0.484375 0.3125 -0.8125q0.3125 -0.34375 0.84375 -0.34375q0.546875 0 0.859375 0.34375q0.328125 0.328125 0.328125 0.8125q0 0.484375 -0.328125 0.8125q-0.3125 0.328125 -0.859375 0.328125q-0.53125 0 -0.84375 -0.328125q-0.3125 -0.328125 -0.3125 -0.8125zm18.966644 12.28125q0 3.578125 -1.59375 5.6875q-1.59375 2.109375 -4.25 2.109375q-3.15625 0 -4.828125 -2.21875l0 7.84375l-1.6875 0l0 -21.265625l1.578125 0l0.078125 2.171875q1.65625 -2.453125 4.8125 -2.453125q2.75 0 4.3125 2.09375q1.578125 2.078125 1.578125 5.78125l0 0.25zm-1.703125 -0.296875q0 -2.9375 -1.21875 -4.640625q-1.203125 -1.703125 -3.359375 -1.703125q-1.5625 0 -2.6875 0.75q-1.109375 0.75 -1.703125 2.1875l0 7.359375q0.609375 1.3125 1.734375 2.015625q1.140625 0.6875 2.6875 0.6875q2.140625 0 3.34375 -1.703125q1.203125 -1.703125 1.203125 -4.953125zm14.65329 3.90625q0 -1.265625 -1.015625 -2.03125q-1.015625 -0.765625 -3.0625 -1.1875q-2.03125 -0.4375 -3.171875 -1.0q-1.125 -0.5625 -1.671875 -1.359375q-0.546875 -0.8125 -0.546875 -1.96875q0 -1.8125 1.515625 -3.0q1.53125 -1.1875 3.890625 -1.1875q2.578125 0 4.125 1.28125q1.5625 1.265625 1.5625 3.3125l-1.703125 0q0 -1.359375 -1.140625 -2.25q-1.125 -0.890625 -2.84375 -0.890625q-1.671875 0 -2.6875 0.75q-1.015625 0.734375 -1.015625 1.921875q0 1.15625 0.84375 1.796875q0.84375 0.625 3.078125 1.15625q2.25 0.515625 3.359375 1.109375q1.109375 0.59375 1.640625 1.4375q0.546875 0.84375 0.546875 2.03125q0 1.9375 -1.578125 3.109375q-1.5625 1.15625 -4.078125 1.15625q-2.6875 0 -4.359375 -1.296875q-1.65625 -1.296875 -1.65625 -3.28125l1.703125 0q0.09375 1.484375 1.25 2.3125q1.15625 0.828125 3.0625 0.828125q1.765625 0 2.859375 -0.765625q1.09375 -0.78125 1.09375 -1.984375zm15.403229 1.96875q-1.53125 2.21875 -4.90625 2.21875q-2.453125 0 -3.734375 -1.421875q-1.265625 -1.421875 -1.296875 -4.21875l0 -10.0l1.6875 0l0 9.78125q0 4.390625 3.546875 4.390625q3.6875 0 4.671875 -3.0625l0 -11.109375l1.703125 0l0 15.359375l-1.640625 0l-0.03125 -1.9375zm7.636383 -13.421875l0.046875 2.5q0.859375 -1.390625 2.125 -2.078125q1.28125 -0.703125 2.84375 -0.703125q3.640625 0 4.609375 2.984375q0.828125 -1.4375 2.203125 -2.203125q1.375 -0.78125 3.03125 -0.78125q4.953125 0 5.046875 5.390625l0 10.25l-1.703125 0l0 -10.125q-0.015625 -2.046875 -0.890625 -3.03125q-0.875 -1.0 -2.84375 -1.0q-1.828125 0.015625 -3.09375 1.171875q-1.265625 1.15625 -1.40625 2.828125l0 10.15625l-1.703125 0l0 -10.25q-0.015625 -1.96875 -0.9375 -2.9375q-0.90625 -0.96875 -2.8125 -0.96875q-1.59375 0 -2.75 0.921875q-1.140625 0.90625 -1.703125 2.703125l0 10.53125l-1.703125 0l0 -15.359375l1.640625 0zm30.588654 7.546875q0 -3.578125 1.59375 -5.703125q1.59375 -2.125 4.34375 -2.125q3.109375 0 4.734375 2.453125l0 -8.609375l1.6875 0l0 21.796875l-1.59375 0l-0.0625 -2.046875q-1.640625 2.328125 -4.796875 2.328125q-2.65625 0 -4.28125 -2.125q-1.625 -2.140625 -1.625 -5.78125l0 -0.1875zm1.71875 0.296875q0 2.9375 1.171875 4.640625q1.1875 1.6875 3.328125 1.6875q3.140625 0 4.453125 -2.765625l0 -7.21875q-1.3125 -2.984375 -4.421875 -2.984375q-2.140625 0 -3.34375 1.6875q-1.1875 1.671875 -1.1875 4.953125zm14.180237 -0.390625q0 -2.21875 0.859375 -3.984375q0.859375 -1.78125 2.421875 -2.765625q1.5625 -0.984375 3.546875 -0.984375q3.078125 0 4.96875 2.15625q1.90625 2.140625 1.90625 5.6875l0 0.359375q0 2.234375 -0.859375 4.015625q-0.859375 1.78125 -2.421875 2.75q-1.5625 0.953125 -3.5625 0.953125q-3.046875 0 -4.953125 -2.140625q-1.90625 -2.15625 -1.90625 -5.703125l0 -0.34375zm1.703125 0.46875q0 2.75 1.421875 4.515625q1.421875 1.765625 3.734375 1.765625q2.296875 0 3.71875 -1.765625q1.4375 -1.765625 1.4375 -4.65625l0 -0.328125q0 -1.75 -0.65625 -3.21875q-0.65625 -1.46875 -1.828125 -2.265625q-1.171875 -0.796875 -2.703125 -0.796875q-2.265625 0 -3.703125 1.78125q-1.421875 1.78125 -1.421875 4.65625l0 0.3125zm17.401703 7.4375l-1.703125 0l0 -21.796875l1.703125 0l0 21.796875zm3.6853943 -7.90625q0 -2.21875 0.859375 -3.984375q0.859375 -1.78125 2.421875 -2.765625q1.5625 -0.984375 3.546875 -0.984375q3.0781555 0 4.9687805 2.15625q1.90625 2.140625 1.90625 5.6875l0 0.359375q0 2.234375 -0.859375 4.015625q-0.859375 1.78125 -2.421875 2.75q-1.5625305 0.953125 -3.5625305 0.953125q-3.046875 0 -4.953125 -2.140625q-1.90625 -2.15625 -1.90625 -5.703125l0 -0.34375zm1.703125 0.46875q0 2.75 1.421875 4.515625q1.421875 1.765625 3.734375 1.765625q2.296875 0 3.7187805 -1.765625q1.4375 -1.765625 1.4375 -4.65625l0 -0.328125q0 -1.75 -0.65625 -3.21875q-0.65625 -1.46875 -1.828125 -2.265625q-1.1719055 -0.796875 -2.7031555 -0.796875q-2.265625 0 -3.703125 1.78125q-1.421875 1.78125 -1.421875 4.65625l0 0.3125zm22.604828 -6.46875q-0.546875 -0.09375 -1.15625 -0.09375q-1.59375 0 -2.6875 0.890625q-1.09375 0.875 -1.5625 2.5625l0 10.546875l-1.6875 0l0 -15.359375l1.65625 0l0.03125 2.453125q1.34375 -2.734375 4.328125 -2.734375q0.703125 0 1.125 0.1875l-0.046875 1.546875zm18.93811 10.0q0 -1.265625 -1.015625 -2.03125q-1.015625 -0.765625 -3.0625 -1.1875q-2.03125 -0.4375 -3.171875 -1.0q-1.125 -0.5625 -1.671875 -1.359375q-0.546875 -0.8125 -0.546875 -1.96875q0 -1.8125 1.515625 -3.0q1.53125 -1.1875 3.890625 -1.1875q2.578125 0 4.125 1.28125q1.5625 1.265625 1.5625 3.3125l-1.703125 0q0 -1.359375 -1.140625 -2.25q-1.125 -0.890625 -2.84375 -0.890625q-1.671875 0 -2.6875 0.75q-1.015625 0.734375 -1.015625 1.921875q0 1.15625 0.84375 1.796875q0.84375 0.625 3.078125 1.15625q2.25 0.515625 3.359375 1.109375q1.109375 0.59375 1.640625 1.4375q0.546875 0.84375 0.546875 2.03125q0 1.9375 -1.578125 3.109375q-1.5625 1.15625 -4.078125 1.15625q-2.6875 0 -4.359375 -1.296875q-1.65625 -1.296875 -1.65625 -3.28125l1.703125 0q0.09375 1.484375 1.25 2.3125q1.15625 0.828125 3.0625 0.828125q1.765625 0 2.859375 -0.765625q1.09375 -0.78125 1.09375 -1.984375zm7.4188538 3.90625l-1.703125 0l0 -15.359375l1.703125 0l0 15.359375zm-2.0 -19.796875q0 -0.484375 0.3125 -0.8125q0.3125 -0.34375 0.84375 -0.34375q0.546875 0 0.859375 0.34375q0.328125 0.328125 0.328125 0.8125q0 0.484375 -0.328125 0.8125q-0.3125 0.328125 -0.859375 0.328125q-0.53125 0 -0.84375 -0.328125q-0.3125 -0.328125 -0.3125 -0.8125zm9.263519 0.515625l0 3.921875l3.171875 0l0 1.390625l-3.171875 0l0 10.234375q0 1.28125 0.453125 1.90625q0.46875 0.625 1.546875 0.625q0.421875 0 1.375 -0.140625l0.0625 1.390625q-0.65625 0.234375 -1.8125 0.234375q-1.75 0 -2.546875 -1.015625q-0.78125 -1.015625 -0.78125 -2.984375l0 -10.25l-2.828125 0l0 -1.390625l2.828125 0l0 -3.921875l1.703125 0zm23.451263 19.28125q-0.25 -0.71875 -0.328125 -2.140625q-0.890625 1.15625 -2.28125 1.796875q-1.375 0.625 -2.9218445 0.625q-2.21875 0 -3.59375 -1.234375q-1.359375 -1.234375 -1.359375 -3.125q0 -2.234375 1.859375 -3.53125q1.875 -1.3125 5.2030945 -1.3125l3.078125 0l0 -1.75q0 -1.640625 -1.015625 -2.578125q-1.015625 -0.953125 -2.953125 -0.953125q-1.7812195 0 -2.9530945 0.90625q-1.15625 0.90625 -1.15625 2.1875l-1.703125 -0.015625q0 -1.828125 1.703125 -3.171875q1.703125 -1.34375 4.1874695 -1.34375q2.578125 0 4.0625 1.296875q1.484375 1.28125 1.515625 3.578125l0 7.265625q0 2.21875 0.46875 3.328125l0 0.171875l-1.8125 0zm-5.34375 -1.21875q1.703125 0 3.046875 -0.8125q1.34375 -0.828125 1.953125 -2.21875l0 -3.375l-3.03125 0q-2.5468445 0.03125 -3.9843445 0.9375q-1.421875 0.890625 -1.421875 2.46875q0 1.296875 0.953125 2.15625q0.953125 0.84375 2.4843445 0.84375zm12.770325 -14.140625l0.046875 2.5q0.859375 -1.390625 2.125 -2.078125q1.28125 -0.703125 2.84375 -0.703125q3.640625 0 4.609375 2.984375q0.828125 -1.4375 2.203125 -2.203125q1.375 -0.78125 3.03125 -0.78125q4.953125 0 5.046875 5.390625l0 10.25l-1.703125 0l0 -10.125q-0.015625 -2.046875 -0.890625 -3.03125q-0.875 -1.0 -2.84375 -1.0q-1.828125 0.015625 -3.09375 1.171875q-1.265625 1.15625 -1.40625 2.828125l0 10.15625l-1.703125 0l0 -10.25q-0.015625 -1.96875 -0.9375 -2.9375q-0.90625 -0.96875 -2.8125 -0.96875q-1.59375 0 -2.75 0.921875q-1.140625 0.90625 -1.703125 2.703125l0 10.53125l-1.703125 0l0 -15.359375l1.640625 0zm30.146667 15.640625q-1.953125 0 -3.546875 -0.953125q-1.578125 -0.96875 -2.453125 -2.6875q-0.875 -1.734375 -0.875 -3.875l0 -0.609375q0 -2.21875 0.859375 -3.984375q0.859375 -1.78125 2.390625 -2.796875q1.53125 -1.015625 3.3125 -1.015625q2.796875 0 4.4375 1.90625q1.640625 1.90625 1.640625 5.21875l0 0.953125l-10.953125 0l0 0.328125q0 2.609375 1.484375 4.34375q1.5 1.734375 3.78125 1.734375q1.359375 0 2.390625 -0.484375q1.046875 -0.5 1.90625 -1.59375l1.0625 0.8125q-1.875 2.703125 -5.4375 2.703125zm-0.3125 -14.46875q-1.90625 0 -3.21875 1.40625q-1.3125 1.40625 -1.609375 3.765625l9.21875 0l0 -0.1875q-0.078125 -2.203125 -1.265625 -3.59375q-1.1875 -1.390625 -3.125 -1.390625zm12.029358 -5.09375l0 3.921875l3.171875 0l0 1.390625l-3.171875 0l0 10.234375q0 1.28125 0.453125 1.90625q0.46875 0.625 1.546875 0.625q0.421875 0 1.375 -0.140625l0.0625 1.390625q-0.65625 0.234375 -1.8125 0.234375q-1.75 0 -2.546875 -1.015625q-0.78125 -1.015625 -0.78125 -2.984375l0 -10.25l-2.828125 0l0 -1.390625l2.828125 0l0 -3.921875l1.703125 0zm6.3374634 23.140625l-1.015625 -0.734375q1.296875 -1.734375 1.34375 -3.59375l0 -2.203125l1.65625 0l0 1.78125q0 2.953125 -1.984375 4.75zm18.66095 -5.015625q1.765625 0 2.96875 -1.0q1.203125 -1.0 1.296875 -2.578125l1.640625 0q-0.078125 1.40625 -0.890625 2.5625q-0.796875 1.15625 -2.140625 1.8125q-1.34375 0.640625 -2.875 0.640625q-3.015625 0 -4.796875 -2.09375q-1.765625 -2.109375 -1.765625 -5.65625l0 -0.5q0 -2.28125 0.796875 -4.015625q0.796875 -1.75 2.28125 -2.703125q1.484375 -0.953125 3.46875 -0.953125q2.53125 0 4.171875 1.515625q1.640625 1.5 1.75 3.953125l-1.640625 0q-0.109375 -1.8125 -1.296875 -2.90625q-1.1875 -1.109375 -2.984375 -1.109375q-2.296875 0 -3.578125 1.65625q-1.265625 1.65625 -1.265625 4.65625l0 0.5q0 2.9375 1.265625 4.578125q1.28125 1.640625 3.59375 1.640625zm8.361816 -6.75q0 -2.21875 0.859375 -3.984375q0.859375 -1.78125 2.421875 -2.765625q1.5625 -0.984375 3.546875 -0.984375q3.078125 0 4.96875 2.15625q1.90625 2.140625 1.90625 5.6875l0 0.359375q0 2.234375 -0.859375 4.015625q-0.859375 1.78125 -2.421875 2.75q-1.5625 0.953125 -3.5625 0.953125q-3.046875 0 -4.953125 -2.140625q-1.90625 -2.15625 -1.90625 -5.703125l0 -0.34375zm1.703125 0.46875q0 2.75 1.421875 4.515625q1.421875 1.765625 3.734375 1.765625q2.296875 0 3.71875 -1.765625q1.4375 -1.765625 1.4375 -4.65625l0 -0.328125q0 -1.75 -0.65625 -3.21875q-0.65625 -1.46875 -1.828125 -2.265625q-1.171875 -0.796875 -2.703125 -0.796875q-2.265625 0 -3.703125 1.78125q-1.421875 1.78125 -1.421875 4.65625l0 0.3125zm17.120422 -7.921875l0.0625 2.625q0.859375 -1.40625 2.15625 -2.15625q1.296875 -0.75 2.84375 -0.75q2.46875 0 3.671875 1.390625q1.21875 1.390625 1.234375 4.171875l0 10.078125l-1.6875 0l0 -10.09375q-0.015625 -2.046875 -0.875 -3.046875q-0.859375 -1.015625 -2.75 -1.015625q-1.578125 0 -2.796875 0.984375q-1.203125 0.984375 -1.78125 2.65625l0 10.515625l-1.6875 0l0 -15.359375l1.609375 0zm23.542664 11.453125q0 -1.265625 -1.015625 -2.03125q-1.015625 -0.765625 -3.0625 -1.1875q-2.03125 -0.4375 -3.171875 -1.0q-1.125 -0.5625 -1.671875 -1.359375q-0.546875 -0.8125 -0.546875 -1.96875q0 -1.8125 1.515625 -3.0q1.53125 -1.1875 3.890625 -1.1875q2.578125 0 4.125 1.28125q1.5625 1.265625 1.5625 3.3125l-1.703125 0q0 -1.359375 -1.140625 -2.25q-1.125 -0.890625 -2.84375 -0.890625q-1.671875 0 -2.6875 0.75q-1.015625 0.734375 -1.015625 1.921875q0 1.15625 0.84375 1.796875q0.84375 0.625 3.078125 1.15625q2.25 0.515625 3.359375 1.109375q1.109375 0.59375 1.640625 1.4375q0.546875 0.84375 0.546875 2.03125q0 1.9375 -1.578125 3.109375q-1.5625 1.15625 -4.078125 1.15625q-2.6875 0 -4.359375 -1.296875q-1.65625 -1.296875 -1.65625 -3.28125l1.703125 0q0.09375 1.484375 1.25 2.3125q1.15625 0.828125 3.0625 0.828125q1.765625 0 2.859375 -0.765625q1.09375 -0.78125 1.09375 -1.984375zm11.465698 4.1875q-1.953125 0 -3.546875 -0.953125q-1.578125 -0.96875 -2.453125 -2.6875q-0.875 -1.734375 -0.875 -3.875l0 -0.609375q0 -2.21875 0.859375 -3.984375q0.859375 -1.78125 2.390625 -2.796875q1.53125 -1.015625 3.3125 -1.015625q2.796875 0 4.4375 1.90625q1.640625 1.90625 1.640625 5.21875l0 0.953125l-10.953125 0l0 0.328125q0 2.609375 1.484375 4.34375q1.5 1.734375 3.78125 1.734375q1.359375 0 2.390625 -0.484375q1.046875 -0.5 1.90625 -1.59375l1.0625 0.8125q-1.875 2.703125 -5.4375 2.703125zm-0.3125 -14.46875q-1.90625 0 -3.21875 1.40625q-1.3125 1.40625 -1.609375 3.765625l9.21875 0l0 -0.1875q-0.078125 -2.203125 -1.265625 -3.59375q-1.1875 -1.390625 -3.125 -1.390625zm15.060608 13.03125q1.765625 0 2.96875 -1.0q1.203125 -1.0 1.296875 -2.578125l1.640625 0q-0.078125 1.40625 -0.890625 2.5625q-0.796875 1.15625 -2.140625 1.8125q-1.34375 0.640625 -2.875 0.640625q-3.015625 0 -4.796875 -2.09375q-1.765625 -2.109375 -1.765625 -5.65625l0 -0.5q0 -2.28125 0.796875 -4.015625q0.796875 -1.75 2.28125 -2.703125q1.484375 -0.953125 3.46875 -0.953125q2.53125 0 4.171875 1.515625q1.640625 1.5 1.75 3.953125l-1.640625 0q-0.109375 -1.8125 -1.296875 -2.90625q-1.1875 -1.109375 -2.984375 -1.109375q-2.296875 0 -3.578125 1.65625q-1.265625 1.65625 -1.265625 4.65625l0 0.5q0 2.9375 1.265625 4.578125q1.28125 1.640625 3.59375 1.640625zm11.939941 -18.125l0 3.921875l3.171875 0l0 1.390625l-3.171875 0l0 10.234375q0 1.28125 0.453125 1.90625q0.46875 0.625 1.546875 0.625q0.421875 0 1.375 -0.140625l0.0625 1.390625q-0.65625 0.234375 -1.8125 0.234375q-1.75 0 -2.546875 -1.015625q-0.78125 -1.015625 -0.78125 -2.984375l0 -10.25l-2.828125 0l0 -1.390625l2.828125 0l0 -3.921875l1.703125 0zm12.634338 19.5625q-1.953125 0 -3.546875 -0.953125q-1.578125 -0.96875 -2.453125 -2.6875q-0.875 -1.734375 -0.875 -3.875l0 -0.609375q0 -2.21875 0.859375 -3.984375q0.859375 -1.78125 2.390625 -2.796875q1.53125 -1.015625 3.3125 -1.015625q2.796875 0 4.4375 1.90625q1.640625 1.90625 1.640625 5.21875l0 0.953125l-10.953125 0l0 0.328125q0 2.609375 1.484375 4.34375q1.5 1.734375 3.78125 1.734375q1.359375 0 2.390625 -0.484375q1.046875 -0.5 1.90625 -1.59375l1.0625 0.8125q-1.875 2.703125 -5.4375 2.703125zm-0.3125 -14.46875q-1.90625 0 -3.21875 1.40625q-1.3125 1.40625 -1.609375 3.765625l9.21875 0l0 -0.1875q-0.078125 -2.203125 -1.265625 -3.59375q-1.1875 -1.390625 -3.125 -1.390625zm12.029297 -5.09375l0 3.921875l3.171875 0l0 1.390625l-3.171875 0l0 10.234375q0 1.28125 0.453125 1.90625q0.46875 0.625 1.546875 0.625q0.421875 0 1.375 -0.140625l0.0625 1.390625q-0.65625 0.234375 -1.8125 0.234375q-1.75 0 -2.546875 -1.015625q-0.78125 -1.015625 -0.78125 -2.984375l0 -10.25l-2.828064 0l0 -1.390625l2.828064 0l0 -3.921875l1.703125 0zm16.5719 17.34375q-1.53125 2.21875 -4.90625 2.21875q-2.453125 0 -3.734375 -1.421875q-1.265625 -1.421875 -1.296875 -4.21875l0 -10.0l1.6875 0l0 9.78125q0 4.390625 3.546875 4.390625q3.6875 0 4.671875 -3.0625l0 -11.109375l1.703125 0l0 15.359375l-1.640625 0l-0.03125 -1.9375zm13.183228 -11.96875q-0.546875 -0.09375 -1.15625 -0.09375q-1.59375 0 -2.6875 0.890625q-1.09375 0.875 -1.5625 2.5625l0 10.546875l-1.6875 0l0 -15.359375l1.65625 0l0.03125 2.453125q1.34375 -2.734375 4.328125 -2.734375q0.703125 0 1.125 0.1875l-0.046875 1.546875z" fill-rule="nonzero"/><path fill="#ffffff" d="m381.89188 320.77612q-0.25 -0.71875 -0.328125 -2.140625q-0.890625 1.15625 -2.28125 1.796875q-1.375 0.625 -2.921875 0.625q-2.21875 0 -3.59375 -1.234375q-1.359375 -1.234375 -1.359375 -3.125q0 -2.234375 1.859375 -3.53125q1.875 -1.3125 5.203125 -1.3125l3.078125 0l0 -1.75q0 -1.640625 -1.015625 -2.578125q-1.015625 -0.953125 -2.953125 -0.953125q-1.78125 0 -2.953125 0.90625q-1.15625 0.90625 -1.15625 2.1875l-1.703125 -0.015625q0 -1.828125 1.703125 -3.171875q1.703125 -1.34375 4.1875 -1.34375q2.578125 0 4.0625 1.296875q1.484375 1.28125 1.515625 3.578125l0 7.265625q0 2.21875 0.46875 3.328125l0 0.171875l-1.8125 0zm-5.34375 -1.21875q1.703125 0 3.046875 -0.8125q1.34375 -0.828125 1.953125 -2.21875l0 -3.375l-3.03125 0q-2.546875 0.03125 -3.984375 0.9375q-1.421875 0.890625 -1.421875 2.46875q0 1.296875 0.953125 2.15625q0.953125 0.84375 2.484375 0.84375zm10.535919 -6.59375q0 -3.578125 1.59375 -5.703125q1.59375 -2.125 4.34375 -2.125q3.109375 0 4.734375 2.453125l0 -8.609375l1.6875 0l0 21.796875l-1.59375 0l-0.0625 -2.046875q-1.640625 2.328125 -4.796875 2.328125q-2.65625 0 -4.28125 -2.125q-1.625 -2.140625 -1.625 -5.78125l0 -0.1875zm1.71875 0.296875q0 2.9375 1.171875 4.640625q1.1875 1.6875 3.328125 1.6875q3.140625 0 4.453125 -2.765625l0 -7.21875q-1.3125 -2.984375 -4.421875 -2.984375q-2.140625 0 -3.34375 1.6875q-1.1875 1.671875 -1.1875 4.953125zm17.008362 7.515625l-1.703125 0l0 -15.359375l1.703125 0l0 15.359375zm-2.0 -19.796875q0 -0.484375 0.3125 -0.8125q0.3125 -0.34375 0.84375 -0.34375q0.546875 0 0.859375 0.34375q0.328125 0.328125 0.328125 0.8125q0 0.484375 -0.328125 0.8125q-0.3125 0.328125 -0.859375 0.328125q-0.53125 0 -0.84375 -0.328125q-0.3125 -0.328125 -0.3125 -0.8125zm18.966644 12.28125q0 3.578125 -1.59375 5.6875q-1.59375 2.109375 -4.25 2.109375q-3.15625 0 -4.828125 -2.21875l0 7.84375l-1.6875 0l0 -21.265625l1.578125 0l0.078125 2.171875q1.65625 -2.453125 4.8125 -2.453125q2.75 0 4.3125 2.09375q1.578125 2.078125 1.578125 5.78125l0 0.25zm-1.703125 -0.296875q0 -2.9375 -1.21875 -4.640625q-1.203125 -1.703125 -3.359375 -1.703125q-1.5625 0 -2.6875 0.75q-1.109375 0.75 -1.703125 2.1875l0 7.359375q0.609375 1.3125 1.734375 2.015625q1.140625 0.6875 2.6875 0.6875q2.140625 0 3.34375 -1.703125q1.203125 -1.703125 1.203125 -4.953125zm7.356415 7.8125l-1.703125 0l0 -15.359375l1.703125 0l0 15.359375zm-2.0 -19.796875q0 -0.484375 0.3125 -0.8125q0.3125 -0.34375 0.84375 -0.34375q0.546875 0 0.859375 0.34375q0.328125 0.328125 0.328125 0.8125q0 0.484375 -0.328125 0.8125q-0.3125 0.328125 -0.859375 0.328125q-0.53125 0 -0.84375 -0.328125q-0.3125 -0.328125 -0.3125 -0.8125zm15.810394 15.890625q0 -1.265625 -1.015625 -2.03125q-1.015625 -0.765625 -3.0625 -1.1875q-2.03125 -0.4375 -3.171875 -1.0q-1.125 -0.5625 -1.671875 -1.359375q-0.546875 -0.8125 -0.546875 -1.96875q0 -1.8125 1.515625 -3.0q1.53125 -1.1875 3.890625 -1.1875q2.578125 0 4.125 1.28125q1.5625 1.265625 1.5625 3.3125l-1.703125 0q0 -1.359375 -1.140625 -2.25q-1.125 -0.890625 -2.84375 -0.890625q-1.671875 0 -2.6875 0.75q-1.015625 0.734375 -1.015625 1.921875q0 1.15625 0.84375 1.796875q0.84375 0.625 3.078125 1.15625q2.25 0.515625 3.359375 1.109375q1.109375 0.59375 1.640625 1.4375q0.546875 0.84375 0.546875 2.03125q0 1.9375 -1.578125 3.109375q-1.5625 1.15625 -4.078125 1.15625q-2.6875 0 -4.359375 -1.296875q-1.65625 -1.296875 -1.65625 -3.28125l1.703125 0q0.09375 1.484375 1.25 2.3125q1.15625 0.828125 3.0625 0.828125q1.765625 0 2.859375 -0.765625q1.09375 -0.78125 1.09375 -1.984375zm11.200134 2.75q1.765625 0 2.96875 -1.0q1.203125 -1.0 1.296875 -2.578125l1.640625 0q-0.078125 1.40625 -0.890625 2.5625q-0.796875 1.15625 -2.140625 1.8125q-1.34375 0.640625 -2.875 0.640625q-3.015625 0 -4.796875 -2.09375q-1.765625 -2.109375 -1.765625 -5.65625l0 -0.5q0 -2.28125 0.796875 -4.015625q0.796875 -1.75 2.28125 -2.703125q1.484375 -0.953125 3.46875 -0.953125q2.53125 0 4.171875 1.515625q1.640625 1.5 1.75 3.953125l-1.640625 0q-0.109375 -1.8125 -1.296875 -2.90625q-1.1875 -1.109375 -2.984375 -1.109375q-2.296875 0 -3.578125 1.65625q-1.265625 1.65625 -1.265625 4.65625l0 0.5q0 2.9375 1.265625 4.578125q1.28125 1.640625 3.59375 1.640625zm11.18988 1.15625l-1.703125 0l0 -15.359375l1.703125 0l0 15.359375zm-2.0 -19.796875q0 -0.484375 0.3125 -0.8125q0.3125 -0.34375 0.84375 -0.34375q0.546875 0 0.859375 0.34375q0.328125 0.328125 0.328125 0.8125q0 0.484375 -0.328125 0.8125q-0.3125 0.328125 -0.859375 0.328125q-0.53125 0 -0.84375 -0.328125q-0.3125 -0.328125 -0.3125 -0.8125zm8.2323 4.4375l0.0625 2.625q0.859375 -1.40625 2.15625 -2.15625q1.296875 -0.75 2.84375 -0.75q2.46875 0 3.671875 1.390625q1.21875 1.390625 1.234375 4.171875l0 10.078125l-1.6875 0l0 -10.09375q-0.015625 -2.046875 -0.875 -3.046875q-0.859375 -1.015625 -2.75 -1.015625q-1.578125 0 -2.796875 0.984375q-1.203125 0.984375 -1.78125 2.65625l0 10.515625l-1.6875 0l0 -15.359375l1.609375 0zm13.667603 7.546875q0 -3.609375 1.59375 -5.71875q1.59375 -2.109375 4.34375 -2.109375q3.125 0 4.765625 2.5l0.078125 -2.21875l1.59375 0l0 15.046875q0 2.96875 -1.65625 4.6875q-1.65625 1.734375 -4.5 1.734375q-1.609375 0 -3.0625 -0.71875q-1.453125 -0.703125 -2.296875 -1.90625l0.953125 -1.015625q1.8125 2.21875 4.296875 2.21875q2.125 0 3.3125 -1.265625q1.1875 -1.25 1.234375 -3.484375l0 -1.921875q-1.625 2.265625 -4.75 2.265625q-2.671875 0 -4.296875 -2.125q-1.609375 -2.125 -1.609375 -5.75l0 -0.21875zm1.71875 0.296875q0 2.9375 1.171875 4.640625q1.1875 1.6875 3.328125 1.6875q3.140625 0 4.4375 -2.8125l0 -7.140625q-0.59375 -1.46875 -1.71875 -2.234375q-1.109375 -0.78125 -2.6875 -0.78125q-2.140625 0 -3.34375 1.6875q-1.1875 1.671875 -1.1875 4.953125zm28.09378 7.796875q-1.953125 0 -3.5468445 -0.953125q-1.578125 -0.96875 -2.453125 -2.6875q-0.875 -1.734375 -0.875 -3.875l0 -0.609375q0 -2.21875 0.859375 -3.984375q0.859375 -1.78125 2.390625 -2.796875q1.5312195 -1.015625 3.3124695 -1.015625q2.796875 0 4.4375 1.90625q1.640625 1.90625 1.640625 5.21875l0 0.953125l-10.9530945 0l0 0.328125q0 2.609375 1.484375 4.34375q1.4999695 1.734375 3.7812195 1.734375q1.359375 0 2.390625 -0.484375q1.046875 -0.5 1.90625 -1.59375l1.0625 0.8125q-1.875 2.703125 -5.4375 2.703125zm-0.3125 -14.46875q-1.90625 0 -3.2187195 1.40625q-1.3125 1.40625 -1.609375 3.765625l9.2187195 0l0 -0.1875q-0.078125 -2.203125 -1.265625 -3.59375q-1.1875 -1.390625 -3.125 -1.390625zm11.279358 14.1875l-1.703125 0l0 -21.796875l1.703125 0l0 21.796875zm6.51355 0l-1.703125 0l0 -15.359375l1.703125 0l0 15.359375zm-2.0 -19.796875q0 -0.484375 0.3125 -0.8125q0.3125 -0.34375 0.84375 -0.34375q0.546875 0 0.859375 0.34375q0.328125 0.328125 0.328125 0.8125q0 0.484375 -0.328125 0.8125q-0.3125 0.328125 -0.859375 0.328125q-0.53125 0 -0.84375 -0.328125q-0.3125 -0.328125 -0.3125 -0.8125zm9.263489 0.515625l0 3.921875l3.171875 0l0 1.390625l-3.171875 0l0 10.234375q0 1.28125 0.453125 1.90625q0.46875 0.625 1.546875 0.625q0.421875 0 1.375 -0.140625l0.0625 1.390625q-0.65625 0.234375 -1.8125 0.234375q-1.75 0 -2.546875 -1.015625q-0.78125 -1.015625 -0.78125 -2.984375l0 -10.25l-2.828125 0l0 -1.390625l2.828125 0l0 -3.921875l1.703125 0zm6.3374634 23.140625l-1.015625 -0.734375q1.296875 -1.734375 1.34375 -3.59375l0 -2.203125l1.65625 0l0 1.78125q0 2.953125 -1.984375 4.75zm22.176575 -7.765625q0 -1.265625 -1.015625 -2.03125q-1.015625 -0.765625 -3.0625 -1.1875q-2.03125 -0.4375 -3.171875 -1.0q-1.125 -0.5625 -1.671875 -1.359375q-0.546875 -0.8125 -0.546875 -1.96875q0 -1.8125 1.515625 -3.0q1.53125 -1.1875 3.890625 -1.1875q2.578125 0 4.125 1.28125q1.5625 1.265625 1.5625 3.3125l-1.703125 0q0 -1.359375 -1.140625 -2.25q-1.125 -0.890625 -2.84375 -0.890625q-1.671875 0 -2.6875 0.75q-1.015625 0.734375 -1.015625 1.921875q0 1.15625 0.84375 1.796875q0.84375 0.625 3.078125 1.15625q2.25 0.515625 3.359375 1.109375q1.109375 0.59375 1.640625 1.4375q0.546875 0.84375 0.546875 2.03125q0 1.9375 -1.578125 3.109375q-1.5625 1.15625 -4.078125 1.15625q-2.6875 0 -4.359375 -1.296875q-1.65625 -1.296875 -1.65625 -3.28125l1.703125 0q0.09375 1.484375 1.25 2.3125q1.15625 0.828125 3.0625 0.828125q1.765625 0 2.859375 -0.765625q1.09375 -0.78125 1.09375 -1.984375zm11.465759 4.1875q-1.953125 0 -3.546875 -0.953125q-1.578125 -0.96875 -2.453125 -2.6875q-0.875 -1.734375 -0.875 -3.875l0 -0.609375q0 -2.21875 0.859375 -3.984375q0.859375 -1.78125 2.390625 -2.796875q1.53125 -1.015625 3.3125 -1.015625q2.796875 0 4.4375 1.90625q1.640625 1.90625 1.640625 5.21875l0 0.953125l-10.953125 0l0 0.328125q0 2.609375 1.484375 4.34375q1.5 1.734375 3.78125 1.734375q1.359375 0 2.390625 -0.484375q1.046875 -0.5 1.90625 -1.59375l1.0625 0.8125q-1.875 2.703125 -5.4375 2.703125zm-0.3125 -14.46875q-1.90625 0 -3.21875 1.40625q-1.3125 1.40625 -1.609375 3.765625l9.21875 0l0 -0.1875q-0.078125 -2.203125 -1.265625 -3.59375q-1.1875 -1.390625 -3.125 -1.390625z" fill-rule="nonzero"/></g></svg>